<?xml version="1.0" encoding="UTF-8"?>
<svg version="1.1" xmlns="http://www.w3.org/2000/svg" width="369" height="232">
<path d="M0 0 C121.77 0 243.54 0 369 0 C369 76.56 369 153.12 369 232 C247.23 232 125.46 232 0 232 C0 155.44 0 78.88 0 0 Z " fill="#FCFCFC" transform="translate(0,0)"/>
<path d="M0 0 C3.67265734 2.07004323 6.4944744 4.4293393 9.54296875 7.31640625 C11.49823829 8.98947194 13.03275819 10.02560423 15.4375 10.9375 C17.42265068 10.5225541 17.42265068 10.5225541 19.3359375 9.453125 C20.06296875 9.09476563 20.79 8.73640625 21.5390625 8.3671875 C22.28929687 7.97789063 23.03953125 7.58859375 23.8125 7.1875 C33.89435011 2.11156852 41.90854102 -0.25647905 53.4375 0.9375 C58.08028745 2.61264492 59.96412069 6.64525191 62.1875 10.8125 C66.15099976 19.47630397 66.93949863 27.48857925 67.4375 36.9375 C68.20578125 37.0509375 68.9740625 37.164375 69.765625 37.28125 C73.41329256 38.17716835 74.96700059 40.19250065 77.4375 42.9375 C77.7675 43.2675 78.0975 43.5975 78.4375 43.9375 C79.26280592 55.69472691 78.39078047 65.71253914 72.625 76.25 C70.3523478 81.39337077 72.59471783 86.61617059 73.96484375 91.8125 C74.64497535 94.87028172 74.92526296 97.93700896 75.19140625 101.0546875 C75.34426996 103.02397436 75.34426996 103.02397436 76.4375 104.9375 C78.40783203 104.99357422 78.40783203 104.99357422 80.41796875 105.05078125 C82.15367364 105.11645657 83.88934947 105.18290337 85.625 105.25 C86.48931641 105.27255859 87.35363281 105.29511719 88.24414062 105.31835938 C93.10258569 105.52312143 96.44830089 105.85681415 100.4375 108.9375 C100.1075 110.2575 99.7775 111.5775 99.4375 112.9375 C91.8475 113.2675 84.2575 113.5975 76.4375 113.9375 C75.80204135 118.38571055 75.31519397 122.00915959 75.375 126.375 C75.38402344 127.23996094 75.39304687 128.10492188 75.40234375 128.99609375 C75.41974609 129.95708984 75.41974609 129.95708984 75.4375 130.9375 C76.31792969 131.04707031 77.19835937 131.15664062 78.10546875 131.26953125 C79.26691406 131.42808594 80.42835938 131.58664063 81.625 131.75 C83.34783203 131.97623047 83.34783203 131.97623047 85.10546875 132.20703125 C88.45586027 132.94152505 90.6304729 134.00799926 93.4375 135.9375 C93.1075 137.2575 92.7775 138.5775 92.4375 139.9375 C85.71865045 140.06670865 79.12565484 139.56172779 72.4375 138.9375 C71.59537744 140.85032125 70.76411136 142.76792473 69.9375 144.6875 C69.4734375 145.75484375 69.009375 146.8221875 68.53125 147.921875 C67.21019283 151.02957716 67.21019283 151.02957716 67.4375 154.9375 C73.0475 157.9075 78.6575 160.8775 84.4375 163.9375 C84.4375 165.5875 84.4375 167.2375 84.4375 168.9375 C80.01652613 169.51920709 77.37789161 168.5490066 73.5625 166.5 C68.86124249 164.06491752 65.79036475 162.50581736 60.4375 162.9375 C58.30413161 164.59366756 56.62867364 166.45630611 54.83203125 168.47265625 C47.88733664 175.62127338 38.81733066 181.60278748 29.4375 184.9375 C28.4578125 185.33324219 27.478125 185.72898438 26.46875 186.13671875 C-4.59226141 197.78459803 -44.32784811 197.33170857 -76.5625 190.9375 C-77.34254395 190.78764648 -78.12258789 190.63779297 -78.92626953 190.48339844 C-96.47450628 187.01571666 -113.4963735 180.61206867 -126.62890625 168.03125 C-129.42751087 165.62239398 -129.42751087 165.62239398 -132.9921875 165.83984375 C-137.16865638 167.12385661 -140.16709314 168.97381794 -143.6875 171.5 C-150.79037607 176.57678453 -150.79037607 176.57678453 -155.5625 175.9375 C-155.81640625 173.66015625 -155.81640625 173.66015625 -155.5625 170.9375 C-153.83984375 169.05859375 -153.83984375 169.05859375 -151.5 167.375 C-150.68273437 166.78460938 -149.86546875 166.19421875 -149.0234375 165.5859375 C-140.59093602 159.9375 -140.59093602 159.9375 -137.5625 159.9375 C-138.519081 158.16571947 -139.47782988 156.39510924 -140.4375 154.625 C-140.97117188 153.63886719 -141.50484375 152.65273437 -142.0546875 151.63671875 C-143.56972126 148.84163542 -143.56972126 148.84163542 -145.5625 145.9375 C-147.72546584 145.5334942 -147.72546584 145.5334942 -150.1875 145.6875 C-151.5178125 145.72617187 -151.5178125 145.72617187 -152.875 145.765625 C-156.47309916 145.99573599 -159.99599597 146.40912903 -163.5625 146.9375 C-163.8925 145.6175 -164.2225 144.2975 -164.5625 142.9375 C-161.59903214 140.46563545 -159.02208311 139.27501639 -155.3125 138.25 C-153.97445312 137.87294922 -153.97445312 137.87294922 -152.609375 137.48828125 C-151.59617187 137.21564453 -151.59617187 137.21564453 -150.5625 136.9375 C-151.14164667 130.92423249 -151.78587945 124.92857278 -152.5625 118.9375 C-153.50996094 119.04578125 -153.50996094 119.04578125 -154.4765625 119.15625 C-162.18818579 119.95630314 -169.81430183 120.03930114 -177.5625 119.9375 C-177.2325 118.2875 -176.9025 116.6375 -176.5625 114.9375 C-168.91776412 111.90596681 -161.748266 111.2751774 -153.5625 110.9375 C-153.55992187 109.84695312 -153.55734375 108.75640625 -153.5546875 107.6328125 C-153.27399667 93.04831256 -149.99590199 80.2660722 -142.40625 67.73828125 C-140.93450429 64.59719434 -141.69124336 62.19019145 -142.5625 58.9375 C-146.28535344 44.6257449 -146.40775038 29.53902261 -139.13671875 16.3515625 C-136.45667132 12.07179684 -133.85810492 8.71022804 -129.5625 5.9375 C-114.43310447 3.4360606 -100.35443644 9.24221617 -87.0390625 15.80078125 C-78.03620161 18.74441329 -67.53068872 16.54031531 -58.26171875 15.70117188 C-53.24267793 15.26178464 -48.29047418 14.87859623 -43.25 14.93359375 C-35.03730744 15.18717495 -35.03730744 15.18717495 -27.77734375 11.828125 C-25.47585695 9.22872075 -25.47585695 9.22872075 -23.49609375 6.4609375 C-17.47474129 -1.39723157 -9.04873972 -2.69874693 0 0 Z " fill="#FBFBFB" transform="translate(219.5625,19.0625)"/>
<path d="M0 0 C3.67265734 2.07004323 6.4944744 4.4293393 9.54296875 7.31640625 C11.49823829 8.98947194 13.03275819 10.02560423 15.4375 10.9375 C17.42265068 10.5225541 17.42265068 10.5225541 19.3359375 9.453125 C20.06296875 9.09476563 20.79 8.73640625 21.5390625 8.3671875 C22.28929687 7.97789063 23.03953125 7.58859375 23.8125 7.1875 C33.89435011 2.11156852 41.90854102 -0.25647905 53.4375 0.9375 C58.08028745 2.61264492 59.96412069 6.64525191 62.1875 10.8125 C66.15099976 19.47630397 66.93949863 27.48857925 67.4375 36.9375 C68.20578125 37.0509375 68.9740625 37.164375 69.765625 37.28125 C73.41329256 38.17716835 74.96700059 40.19250065 77.4375 42.9375 C77.7675 43.2675 78.0975 43.5975 78.4375 43.9375 C79.26280592 55.69472691 78.39078047 65.71253914 72.625 76.25 C70.3523478 81.39337077 72.59471783 86.61617059 73.96484375 91.8125 C74.64497535 94.87028172 74.92526296 97.93700896 75.19140625 101.0546875 C75.34426996 103.02397436 75.34426996 103.02397436 76.4375 104.9375 C78.40783203 104.99357422 78.40783203 104.99357422 80.41796875 105.05078125 C82.15367364 105.11645657 83.88934947 105.18290337 85.625 105.25 C86.48931641 105.27255859 87.35363281 105.29511719 88.24414062 105.31835938 C93.10258569 105.52312143 96.44830089 105.85681415 100.4375 108.9375 C100.1075 110.2575 99.7775 111.5775 99.4375 112.9375 C91.8475 113.2675 84.2575 113.5975 76.4375 113.9375 C75.80204135 118.38571055 75.31519397 122.00915959 75.375 126.375 C75.38402344 127.23996094 75.39304687 128.10492188 75.40234375 128.99609375 C75.41974609 129.95708984 75.41974609 129.95708984 75.4375 130.9375 C76.31792969 131.04707031 77.19835937 131.15664062 78.10546875 131.26953125 C79.26691406 131.42808594 80.42835938 131.58664063 81.625 131.75 C83.34783203 131.97623047 83.34783203 131.97623047 85.10546875 132.20703125 C88.45586027 132.94152505 90.6304729 134.00799926 93.4375 135.9375 C93.1075 137.2575 92.7775 138.5775 92.4375 139.9375 C85.71865045 140.06670865 79.12565484 139.56172779 72.4375 138.9375 C71.59537744 140.85032125 70.76411136 142.76792473 69.9375 144.6875 C69.4734375 145.75484375 69.009375 146.8221875 68.53125 147.921875 C67.21019283 151.02957716 67.21019283 151.02957716 67.4375 154.9375 C73.0475 157.9075 78.6575 160.8775 84.4375 163.9375 C84.4375 165.5875 84.4375 167.2375 84.4375 168.9375 C80.01652613 169.51920709 77.37789161 168.5490066 73.5625 166.5 C68.86124249 164.06491752 65.79036475 162.50581736 60.4375 162.9375 C58.30413161 164.59366756 56.62867364 166.45630611 54.83203125 168.47265625 C47.88733664 175.62127338 38.81733066 181.60278748 29.4375 184.9375 C28.4578125 185.33324219 27.478125 185.72898438 26.46875 186.13671875 C-4.59226141 197.78459803 -44.32784811 197.33170857 -76.5625 190.9375 C-77.34254395 190.78764648 -78.12258789 190.63779297 -78.92626953 190.48339844 C-96.47450628 187.01571666 -113.4963735 180.61206867 -126.62890625 168.03125 C-129.42751087 165.62239398 -129.42751087 165.62239398 -132.9921875 165.83984375 C-137.16865638 167.12385661 -140.16709314 168.97381794 -143.6875 171.5 C-150.79037607 176.57678453 -150.79037607 176.57678453 -155.5625 175.9375 C-155.81640625 173.66015625 -155.81640625 173.66015625 -155.5625 170.9375 C-153.83984375 169.05859375 -153.83984375 169.05859375 -151.5 167.375 C-150.68273437 166.78460938 -149.86546875 166.19421875 -149.0234375 165.5859375 C-140.59093602 159.9375 -140.59093602 159.9375 -137.5625 159.9375 C-138.519081 158.16571947 -139.47782988 156.39510924 -140.4375 154.625 C-140.97117188 153.63886719 -141.50484375 152.65273437 -142.0546875 151.63671875 C-143.56972126 148.84163542 -143.56972126 148.84163542 -145.5625 145.9375 C-147.72546584 145.5334942 -147.72546584 145.5334942 -150.1875 145.6875 C-151.5178125 145.72617187 -151.5178125 145.72617187 -152.875 145.765625 C-156.47309916 145.99573599 -159.99599597 146.40912903 -163.5625 146.9375 C-163.8925 145.6175 -164.2225 144.2975 -164.5625 142.9375 C-161.59903214 140.46563545 -159.02208311 139.27501639 -155.3125 138.25 C-153.97445312 137.87294922 -153.97445312 137.87294922 -152.609375 137.48828125 C-151.59617187 137.21564453 -151.59617187 137.21564453 -150.5625 136.9375 C-151.14164667 130.92423249 -151.78587945 124.92857278 -152.5625 118.9375 C-153.50996094 119.04578125 -153.50996094 119.04578125 -154.4765625 119.15625 C-162.18818579 119.95630314 -169.81430183 120.03930114 -177.5625 119.9375 C-177.2325 118.2875 -176.9025 116.6375 -176.5625 114.9375 C-168.91776412 111.90596681 -161.748266 111.2751774 -153.5625 110.9375 C-153.55992187 109.84695312 -153.55734375 108.75640625 -153.5546875 107.6328125 C-153.27399667 93.04831256 -149.99590199 80.2660722 -142.40625 67.73828125 C-140.93450429 64.59719434 -141.69124336 62.19019145 -142.5625 58.9375 C-146.28535344 44.6257449 -146.40775038 29.53902261 -139.13671875 16.3515625 C-136.45667132 12.07179684 -133.85810492 8.71022804 -129.5625 5.9375 C-114.43310447 3.4360606 -100.35443644 9.24221617 -87.0390625 15.80078125 C-78.03620161 18.74441329 -67.53068872 16.54031531 -58.26171875 15.70117188 C-53.24267793 15.26178464 -48.29047418 14.87859623 -43.25 14.93359375 C-35.03730744 15.18717495 -35.03730744 15.18717495 -27.77734375 11.828125 C-25.47585695 9.22872075 -25.47585695 9.22872075 -23.49609375 6.4609375 C-17.47474129 -1.39723157 -9.04873972 -2.69874693 0 0 Z M-131.48828125 19.93359375 C-136.38099492 29.0607287 -138.5174451 39.29957497 -135.890625 49.5625 C-135.19933744 51.38854261 -134.39387459 53.170829 -133.5625 54.9375 C-130.5925 54.4425 -130.5925 54.4425 -127.5625 53.9375 C-128.07015891 58.47346533 -129.12364509 61.2269765 -131.75 64.9375 C-141.54454206 79.66961985 -144.82829071 94.48390986 -144.5625 111.9375 C-143.56347656 112.11925781 -142.56445312 112.30101562 -141.53515625 112.48828125 C-140.24480469 112.73964844 -138.95445312 112.99101562 -137.625 113.25 C-136.33722656 113.49363281 -135.04945313 113.73726563 -133.72265625 113.98828125 C-132.67980469 114.30152344 -131.63695312 114.61476563 -130.5625 114.9375 C-130.2325 115.9275 -129.9025 116.9175 -129.5625 117.9375 C-134.1825 118.2675 -138.8025 118.5975 -143.5625 118.9375 C-143.89516291 125.14720773 -143.01279331 129.22014895 -140.5625 134.9375 C-136.6025 134.9375 -132.6425 134.9375 -128.5625 134.9375 C-128.5625 136.2575 -128.5625 137.5775 -128.5625 138.9375 C-132.5225 139.9275 -132.5225 139.9275 -136.5625 140.9375 C-136.25973124 146.99287521 -133.28495962 150.45233458 -129.5625 154.9375 C-128.2940625 154.7209375 -128.2940625 154.7209375 -127 154.5 C-123.52656851 153.9316203 -120.04804338 153.42547607 -116.5625 152.9375 C-116.0675 154.9175 -116.0675 154.9175 -115.5625 156.9375 C-118.0375 157.9275 -118.0375 157.9275 -120.5625 158.9375 C-120.5625 160.2575 -120.5625 161.5775 -120.5625 162.9375 C-97.89968816 185.33921954 -57.79390409 186.45526834 -28.37792969 186.29125977 C-1.2966866 185.7936251 29.24011689 181.41668677 49.625 162.0625 C51.65381554 160.14938666 51.65381554 160.14938666 51.4375 157.9375 C49.7875 157.2775 48.1375 156.6175 46.4375 155.9375 C46.4375 154.2875 46.4375 152.6375 46.4375 150.9375 C49.7375 151.2675 53.0375 151.5975 56.4375 151.9375 C59.98578045 146.75155164 62.04502821 143.21704856 62.4375 136.9375 C60.4575 135.9475 58.4775 134.9575 56.4375 133.9375 C56.7675 132.9475 57.0975 131.9575 57.4375 130.9375 C60.0775 130.6075 62.7175 130.2775 65.4375 129.9375 C66.43859515 126.62679162 66.54106134 123.63665231 66.5 120.1875 C66.4690625 117.58875 66.4690625 117.58875 66.4375 114.9375 C59.5075 114.4425 59.5075 114.4425 52.4375 113.9375 C52.4375 112.9475 52.4375 111.9575 52.4375 110.9375 C57.0575 109.6175 61.6775 108.2975 66.4375 106.9375 C66.75735731 100.22049653 65.9168824 95.18023068 63.4375 88.9375 C62.220625 89.4325 61.00375 89.9275 59.75 90.4375 C53.11322365 92.61486511 45.68748032 93.47240461 39.00390625 91.05859375 C33.33213452 87.80992298 29.67765506 83.005252 27.25 77 C25.65830894 74.71301069 25.65830894 74.71301069 23.3125 74.73828125 C21.56691738 74.78883928 19.82189027 74.86270477 18.078125 74.95703125 C14.02665186 74.92706473 11.12839547 73.5563138 7.4375 71.9375 C6.4475 71.6075 5.4575 71.2775 4.4375 70.9375 C3.77083333 69.60416667 3.10416667 68.27083333 2.4375 66.9375 C-1.10184431 65.75771856 -1.98616148 66.22284693 -5.4375 67.375 C-12.77317767 69.48619636 -21.14038807 70.49066782 -28.5 67.875 C-34.4576984 64.10584387 -37.73976817 59.76856378 -39.5625 52.9375 C-40.2607595 45.28385044 -39.88401147 38.25419315 -37.21875 31.0234375 C-36.36242981 28.66601804 -36.36242981 28.66601804 -36.5625 24.9375 C-46.85804432 24.75473886 -57.01659856 24.67092483 -67.25 25.9375 C-67.99862305 26.02547852 -68.74724609 26.11345703 -69.51855469 26.20410156 C-72.4649502 26.55237213 -75.40524004 26.91405477 -78.33984375 27.3515625 C-85.70218884 28.01307104 -91.30233803 24.32416555 -97.60546875 20.984375 C-107.14960523 15.95945922 -123.95828721 8.74035936 -131.48828125 19.93359375 Z " fill="#292021" transform="translate(219.5625,19.0625)"/>
<path d="M0 0 C5.9340236 1.47816057 11.67230265 3.40524091 17.08740234 6.25634766 C28.41209347 12.17895009 39.82292795 11.04919133 52.32250977 10.45654297 C54.91943359 10.58837891 54.91943359 10.58837891 57.91943359 12.58837891 C56.92943359 12.58837891 55.93943359 12.58837891 54.91943359 12.58837891 C55.1141447 14.5383702 55.1141447 14.5383702 55.91943359 16.58837891 C57.92157304 17.73543141 57.92157304 17.73543141 59.91943359 18.58837891 C56.12911343 19.09894508 52.33700737 19.59485524 48.54443359 20.08837891 C47.48353516 20.23146484 46.42263672 20.37455078 45.32958984 20.52197266 C26.81911937 22.9067572 26.81911937 22.9067572 18.04443359 17.83837891 C16.65798499 17.09859172 15.26862935 16.36422769 13.87646484 15.63525391 C12.8683374 15.10448242 12.8683374 15.10448242 11.83984375 14.56298828 C3.58641178 10.37436631 -5.8356792 7.54237928 -15.08056641 9.58837891 C-20.01685585 13.07392679 -22.13533126 19.13083525 -23.61572266 24.80712891 C-24.9053035 32.52294037 -24.81971154 40.22692636 -22.08056641 47.58837891 C-19.11056641 47.09337891 -19.11056641 47.09337891 -16.08056641 46.58837891 C-15.35791016 48.71728516 -15.35791016 48.71728516 -15.08056641 51.58837891 C-16.52197266 54.42822266 -16.52197266 54.42822266 -18.64306641 57.52587891 C-23.05536634 64.22779951 -26.20179762 71.09807924 -29.08056641 78.58837891 C-29.44150391 79.48943359 -29.80244141 80.39048828 -30.17431641 81.31884766 C-31.46777474 85.9853331 -31.80758286 90.64843048 -32.20556641 95.46337891 C-32.29193359 96.43791016 -32.37830078 97.41244141 -32.46728516 98.41650391 C-32.67817981 100.80664337 -32.88241277 103.19715516 -33.08056641 105.58837891 C-31.95908203 105.66185547 -31.95908203 105.66185547 -30.81494141 105.73681641 C-29.83009766 105.81158203 -28.84525391 105.88634766 -27.83056641 105.96337891 C-26.36876953 106.06779297 -26.36876953 106.06779297 -24.87744141 106.17431641 C-22.18423452 106.57303139 -20.41093362 107.22344954 -18.08056641 108.58837891 C-18.08056641 109.57837891 -18.08056641 110.56837891 -18.08056641 111.58837891 C-20.84508673 112.97063907 -23.12670271 112.68363278 -26.20556641 112.65087891 C-27.30126953 112.64185547 -28.39697266 112.63283203 -29.52587891 112.62353516 C-30.79044922 112.60613281 -30.79044922 112.60613281 -32.08056641 112.58837891 C-31.76863176 114.31764765 -31.45599279 116.04678935 -31.14306641 117.77587891 C-30.96904297 118.73880859 -30.79501953 119.70173828 -30.61572266 120.69384766 C-30.12834164 123.32997415 -29.60631507 125.95963558 -29.08056641 128.58837891 C-25.12056641 128.58837891 -21.16056641 128.58837891 -17.08056641 128.58837891 C-17.08056641 129.90837891 -17.08056641 131.22837891 -17.08056641 132.58837891 C-19.98656902 133.84502868 -21.87661225 134.58837891 -25.08056641 134.58837891 C-23.33953281 139.72442802 -21.77806382 143.50838176 -18.08056641 147.58837891 C-16.81212891 147.37181641 -16.81212891 147.37181641 -15.51806641 147.15087891 C-12.04463491 146.58249921 -8.56610979 146.07635498 -5.08056641 145.58837891 C-4.58556641 148.06337891 -4.58556641 148.06337891 -4.08056641 150.58837891 C-5.73056641 151.57837891 -7.38056641 152.56837891 -9.08056641 153.58837891 C-7.20556751 159.21337558 -0.06082956 161.71667211 4.91943359 164.58837891 C5.69416016 165.05759766 6.46888672 165.52681641 7.26708984 166.01025391 C41.21072457 184.98419129 92.10015161 182.5396113 128.42407227 172.55957031 C141.84092072 168.66801034 154.47180506 163.24028033 162.91943359 151.58837891 C161.26943359 150.92837891 159.61943359 150.26837891 157.91943359 149.58837891 C157.91943359 147.93837891 157.91943359 146.28837891 157.91943359 144.58837891 C161.21943359 144.58837891 164.51943359 144.58837891 167.91943359 144.58837891 C168.76268031 143.01030291 169.59367277 141.42567471 170.41943359 139.83837891 C170.88349609 138.95666016 171.34755859 138.07494141 171.82568359 137.16650391 C173.17980016 134.44141419 173.17980016 134.44141419 172.91943359 130.58837891 C171.26943359 129.92837891 169.61943359 129.26837891 167.91943359 128.58837891 C167.91943359 124.58837891 167.91943359 124.58837891 168.91943359 123.58837891 C171.5900221 123.44722729 174.24375597 123.54590783 176.91943359 123.58837891 C177.24943359 118.63837891 177.57943359 113.68837891 177.91943359 108.58837891 C173.29943359 108.58837891 168.67943359 108.58837891 163.91943359 108.58837891 C163.58943359 107.26837891 163.25943359 105.94837891 162.91943359 104.58837891 C168.04268888 102.13348575 172.25838771 101.08496188 177.91943359 100.58837891 C177.60796887 98.69237521 177.29521642 96.79658304 176.98193359 94.90087891 C176.80791016 93.84513672 176.63388672 92.78939453 176.45458984 91.70166016 C175.98776238 88.98588286 175.47520743 86.28713656 174.91943359 83.58837891 C173.70255859 84.08337891 172.48568359 84.57837891 171.23193359 85.08837891 C164.45417896 87.29782018 156.99366462 88.27798648 150.26318359 85.48681641 C143.79472206 81.45480872 140.3030679 76.35564751 136.91943359 69.58837891 C133.61943359 69.58837891 130.31943359 69.58837891 126.91943359 69.58837891 C126.58943359 68.92837891 126.25943359 68.26837891 125.91943359 67.58837891 C129.38443359 67.09337891 129.38443359 67.09337891 132.91943359 66.58837891 C133.24943359 65.59837891 133.57943359 64.60837891 133.91943359 63.58837891 C136.59807281 63.37119194 138.33571507 63.23397838 140.66943359 64.65087891 C142.48832672 67.47016325 142.51439398 70.29019923 142.91943359 73.58837891 C143.84333504 76.10009089 144.39184094 77.28364867 146.73193359 78.63525391 C152.40104642 80.45746874 157.98667449 81.81123425 163.91943359 80.58837891 C166.24002788 79.24634847 168.13998001 77.78988713 170.13037109 75.99853516 C172.08829782 74.4552785 173.53965107 74.17959836 175.91943359 73.58837891 C176.94956637 71.94016647 177.95057988 70.27334189 178.91943359 68.58837891 C179.90943359 68.25837891 180.89943359 67.92837891 181.91943359 67.58837891 C186.36289982 58.82944754 185.17381741 48.09479628 184.91943359 38.58837891 C184.91943359 37.26837891 184.91943359 35.94837891 184.91943359 34.58837891 C188.79443359 36.46337891 188.79443359 36.46337891 189.91943359 37.58837891 C190.74473951 49.34560582 189.87271406 59.36341805 184.10693359 69.90087891 C181.83428139 75.04424968 184.07665143 80.2670495 185.44677734 85.46337891 C186.12690894 88.52116063 186.40719655 91.58788787 186.67333984 94.70556641 C186.82620356 96.67485326 186.82620356 96.67485326 187.91943359 98.58837891 C189.88976562 98.64445312 189.88976562 98.64445312 191.89990234 98.70166016 C193.63560724 98.76733548 195.37128306 98.83378228 197.10693359 98.90087891 C197.97125 98.9234375 198.83556641 98.94599609 199.72607422 98.96923828 C204.58451929 99.17400033 207.93023449 99.50769305 211.91943359 102.58837891 C211.58943359 103.90837891 211.25943359 105.22837891 210.91943359 106.58837891 C203.32943359 106.91837891 195.73943359 107.24837891 187.91943359 107.58837891 C187.28397494 112.03658946 186.79712756 115.6600385 186.85693359 120.02587891 C186.86595703 120.89083984 186.87498047 121.75580078 186.88427734 122.64697266 C186.89587891 123.28763672 186.90748047 123.92830078 186.91943359 124.58837891 C187.79986328 124.69794922 188.68029297 124.80751953 189.58740234 124.92041016 C191.32957031 125.15824219 191.32957031 125.15824219 193.10693359 125.40087891 C194.82976562 125.62710938 194.82976562 125.62710938 196.58740234 125.85791016 C199.93779387 126.59240396 202.1124065 127.65887817 204.91943359 129.58837891 C204.58943359 130.90837891 204.25943359 132.22837891 203.91943359 133.58837891 C197.20058404 133.71758755 190.60758844 133.21260669 183.91943359 132.58837891 C183.07731103 134.50120016 182.24604495 136.41880364 181.41943359 138.33837891 C180.95537109 139.40572266 180.49130859 140.47306641 180.01318359 141.57275391 C178.69212642 144.68045607 178.69212642 144.68045607 178.91943359 148.58837891 C184.52943359 151.55837891 190.13943359 154.52837891 195.91943359 157.58837891 C195.91943359 159.23837891 195.91943359 160.88837891 195.91943359 162.58837891 C191.49845972 163.17008599 188.8598252 162.19988551 185.04443359 160.15087891 C180.34317608 157.71579642 177.27229835 156.15669626 171.91943359 156.58837891 C169.78606521 158.24454647 168.11060724 160.10718501 166.31396484 162.12353516 C159.36927023 169.27215228 150.29926425 175.25366638 140.91943359 178.58837891 C139.93974609 178.98412109 138.96005859 179.37986328 137.95068359 179.78759766 C106.88967218 191.43547694 67.15408548 190.98258748 34.91943359 184.58837891 C34.13938965 184.43852539 33.3593457 184.28867188 32.55566406 184.13427734 C15.00742732 180.66659557 -2.01443991 174.26294758 -15.14697266 161.68212891 C-17.94557728 159.27327289 -17.94557728 159.27327289 -21.51025391 159.49072266 C-25.68672279 160.77473552 -28.68515955 162.62469684 -32.20556641 165.15087891 C-39.30844248 170.22766343 -39.30844248 170.22766343 -44.08056641 169.58837891 C-44.33447266 167.31103516 -44.33447266 167.31103516 -44.08056641 164.58837891 C-42.35791016 162.70947266 -42.35791016 162.70947266 -40.01806641 161.02587891 C-39.20080078 160.43548828 -38.38353516 159.84509766 -37.54150391 159.23681641 C-29.10900243 153.58837891 -29.10900243 153.58837891 -26.08056641 153.58837891 C-27.03714741 151.81659837 -27.99589629 150.04598815 -28.95556641 148.27587891 C-29.48923828 147.28974609 -30.02291016 146.30361328 -30.57275391 145.28759766 C-32.08778767 142.49251433 -32.08778767 142.49251433 -34.08056641 139.58837891 C-36.24353225 139.18437311 -36.24353225 139.18437311 -38.70556641 139.33837891 C-40.03587891 139.37705078 -40.03587891 139.37705078 -41.39306641 139.41650391 C-44.99116556 139.6466149 -48.51406238 140.06000794 -52.08056641 140.58837891 C-52.41056641 139.26837891 -52.74056641 137.94837891 -53.08056641 136.58837891 C-50.11709854 134.11651436 -47.54014952 132.92589529 -43.83056641 131.90087891 C-42.49251953 131.52382813 -42.49251953 131.52382813 -41.12744141 131.13916016 C-40.11423828 130.86652344 -40.11423828 130.86652344 -39.08056641 130.58837891 C-39.65971307 124.5751114 -40.30394586 118.57945169 -41.08056641 112.58837891 C-42.02802734 112.69666016 -42.02802734 112.69666016 -42.99462891 112.80712891 C-50.7062522 113.60718204 -58.33236823 113.69018005 -66.08056641 113.58837891 C-65.75056641 111.93837891 -65.42056641 110.28837891 -65.08056641 108.58837891 C-57.43583053 105.55684571 -50.2663324 104.92605631 -42.08056641 104.58837891 C-42.07798828 103.49783203 -42.07541016 102.40728516 -42.07275391 101.28369141 C-41.79206307 86.69919147 -38.5139684 73.91695111 -30.92431641 61.38916016 C-29.4525707 58.24807325 -30.20930977 55.84107035 -31.08056641 52.58837891 C-34.80341985 38.27662381 -34.92581679 23.18990152 -27.65478516 10.00244141 C-20.75473457 -1.01624402 -12.29725468 -2.43289972 0 0 Z " fill="#242324" transform="translate(108.08056640625,25.41162109375)"/>
<path d="M0 0 C3.67265734 2.07004323 6.4944744 4.4293393 9.54296875 7.31640625 C11.49823829 8.98947194 13.03275819 10.02560423 15.4375 10.9375 C17.42265068 10.5225541 17.42265068 10.5225541 19.3359375 9.453125 C20.06296875 9.09476563 20.79 8.73640625 21.5390625 8.3671875 C22.28929687 7.97789063 23.03953125 7.58859375 23.8125 7.1875 C33.89435011 2.11156852 41.90854102 -0.25647905 53.4375 0.9375 C58.08028745 2.61264492 59.96412069 6.64525191 62.1875 10.8125 C66.15099976 19.47630397 66.93949863 27.48857925 67.4375 36.9375 C68.6440625 37.123125 68.6440625 37.123125 69.875 37.3125 C70.720625 37.51875 71.56625 37.725 72.4375 37.9375 C72.7675 38.5975 73.0975 39.2575 73.4375 39.9375 C63.70265211 41.33125575 54.19506546 40.6352357 44.4375 39.9375 C44.4375 39.2775 44.4375 38.6175 44.4375 37.9375 C43.7775 37.9375 43.1175 37.9375 42.4375 37.9375 C42.9325 40.4125 42.9325 40.4125 43.4375 42.9375 C41.9525 43.4325 41.9525 43.4325 40.4375 43.9375 C41.31222593 48.89264502 41.31222593 48.89264502 44.5625 52.375 C45.18125 52.560625 45.8 52.74625 46.4375 52.9375 C46.4375 53.5975 46.4375 54.2575 46.4375 54.9375 C44.1275 55.5975 41.8175 56.2575 39.4375 56.9375 C39.1075 59.9075 38.7775 62.8775 38.4375 65.9375 C37.1175 66.2675 35.7975 66.5975 34.4375 66.9375 C34.9325 64.9575 34.9325 64.9575 35.4375 62.9375 C36.0975 62.9375 36.7575 62.9375 37.4375 62.9375 C37.1075 62.2775 36.7775 61.6175 36.4375 60.9375 C36.30778351 58.87644916 36.20810812 56.81345584 36.125 54.75 C35.70853127 48.95147387 35.0226707 45.51855145 31.4375 40.9375 C28.94197863 39.03807876 28.94197863 39.03807876 26.4375 37.9375 C25.7775 37.6075 25.1175 37.2775 24.4375 36.9375 C17.91417285 36.31736652 13.27623656 37.07771066 7.4375 39.9375 C6.4475 39.9375 5.4575 39.9375 4.4375 39.9375 C4.7675 38.6175 5.0975 37.2975 5.4375 35.9375 C6.0975 35.9375 6.7575 35.9375 7.4375 35.9375 C7.1075 34.9475 6.7775 33.9575 6.4375 32.9375 C7.38625 32.793125 8.335 32.64875 9.3125 32.5 C12.3309494 32.10814601 12.3309494 32.10814601 14.4375 30.9375 C12.22194559 22.80462636 9.5605812 15.9263031 3.4375 9.9375 C1.32721686 8.70361785 1.32721686 8.70361785 -0.5625 7.9375 C-0.5625 7.2775 -0.5625 6.6175 -0.5625 5.9375 C-9.09159549 5.14622556 -9.09159549 5.14622556 -16.75 8.3125 C-19.54819647 10.61828151 -19.54819647 10.61828151 -20.5625 12.9375 C-21.2225 12.9375 -21.8825 12.9375 -22.5625 12.9375 C-23.2225 14.5875 -23.8825 16.2375 -24.5625 17.9375 C-25.2225 17.9375 -25.8825 17.9375 -26.5625 17.9375 C-26.645 18.5975 -26.7275 19.2575 -26.8125 19.9375 C-27.47306016 22.57974062 -28.21780642 24.27510618 -29.5 26.625 C-33.61445771 34.62949045 -34.63765079 44.04875333 -33.5625 52.9375 C-32.49268949 55.61202628 -31.22234787 57.55146869 -29.5625 59.9375 C-29.5625 60.5975 -29.5625 61.2575 -29.5625 61.9375 C-30.8825 61.6075 -32.2025 61.2775 -33.5625 60.9375 C-33.5625 59.6175 -33.5625 58.2975 -33.5625 56.9375 C-36.61163228 55.92638907 -36.61163228 55.92638907 -39.5625 56.9375 C-42.81184109 46.10636304 -40.08277263 35.27830086 -36.5625 24.9375 C-37.58730469 24.94910156 -38.61210937 24.96070312 -39.66796875 24.97265625 C-41.028644 24.98204022 -42.38932124 24.99113977 -43.75 25 C-44.42353516 25.00837891 -45.09707031 25.01675781 -45.79101562 25.02539062 C-49.51684131 25.04356538 -52.9413042 24.83049392 -56.5625 23.9375 C-56.5625 21.9575 -56.5625 19.9775 -56.5625 17.9375 C-59.5325 17.6075 -62.5025 17.2775 -65.5625 16.9375 C-65.5625 16.6075 -65.5625 16.2775 -65.5625 15.9375 C-64.54937744 15.92928223 -63.53625488 15.92106445 -62.49243164 15.91259766 C-58.69404043 15.86868825 -54.8996997 15.7598148 -51.10327148 15.63232422 C-49.46760209 15.58623995 -47.83135085 15.55723718 -46.19506836 15.54638672 C-36.30782915 15.66440648 -36.30782915 15.66440648 -27.58349609 11.71435547 C-25.20010834 9.11159916 -25.20010834 9.11159916 -23.33569336 6.37304688 C-17.57020431 -1.54606627 -8.83495286 -2.63498594 0 0 Z " fill="#262323" transform="translate(219.5625,19.0625)"/>
<path d="M0 0 C0.495 0.165 0.99 0.33 1.5 0.5 C1.5 1.16 1.5 1.82 1.5 2.5 C2.25023437 2.74492187 3.00046875 2.98984375 3.7734375 3.2421875 C9.51585176 5.89126686 13.16033427 12.06022829 15.4375 17.8125 C16.5 21.5 16.5 21.5 16.5 25.5 C10.22801876 26.87983587 10.22801876 26.87983587 6.625 25 C2.36040553 22.95299466 -1.00459954 23.11743669 -5.5 24.5 C-8.20552388 26.69823815 -9.94778333 28.39556667 -11.5 31.5 C-12.0401375 37.87362249 -11.40625888 41.36018568 -7.5 46.5 C-4.40243083 48.00804535 -4.40243083 48.00804535 -1.5 48.5 C-1.17 50.81 -0.84 53.12 -0.5 55.5 C-7.28735627 59.4730866 -14.81392718 59.36915679 -22.5 58.5 C-27.67065888 56.07058804 -30.43476356 52.77782646 -32.5 47.5 C-34.37143953 35.09952687 -29.93732117 23.41762511 -24.5 12.5 C-23.84 12.5 -23.18 12.5 -22.5 12.5 C-21.84 10.85 -21.18 9.2 -20.5 7.5 C-19.84 7.5 -19.18 7.5 -18.5 7.5 C-18.29375 6.9225 -18.0875 6.345 -17.875 5.75 C-13.62097851 -1.21112608 -7.30579013 -1.46115803 0 0 Z " fill="#C81C4E" transform="translate(217.5,24.5)"/>
<path d="M0 0 C0.83789062 -0.01611328 1.67578125 -0.03222656 2.5390625 -0.04882812 C7.61380556 -0.0528177 11.30696065 0.35136775 15.625 3.3125 C18.43576999 7.33368829 18.1955913 11.5960934 17.625 16.3125 C14.85958401 27.52319834 8.88942153 37.40959768 -0.375 44.3125 C-4.06916567 46.15958283 -8.33431151 45.65189222 -12.375 45.3125 C-17.10482137 43.48506902 -20.63481818 39.52887404 -23.375 35.3125 C-23.75 32.375 -23.75 32.375 -23.375 30.3125 C-22.055 29.9825 -20.735 29.6525 -19.375 29.3125 C-19.375 29.9725 -19.375 30.6325 -19.375 31.3125 C-11.32959674 31.89340094 -11.32959674 31.89340094 -4.375 28.3125 C-1.89537561 24.59306342 -1.73015031 21.62238145 -2.375 17.3125 C-4.29361082 13.24504507 -6.06662716 11.20737862 -10.125 9.4375 C-11.1975 9.06625 -12.27 8.695 -13.375 8.3125 C-13.375 6.3325 -13.375 4.3525 -13.375 2.3125 C-8.91225616 -0.22008507 -5.02217208 -0.01913938 0 0 Z " fill="#C91B4F" transform="translate(275.375,60.6875)"/>
<path d="M0 0 C4.12593192 2.87855716 7.06537651 6.00862953 8.6875 10.875 C9.4160368 17.7065254 8.95671249 22.40165065 4.6875 27.875 C-0.29558732 31.58788859 -5.05756087 33.16283791 -11.3125 32.875 C-15.97804724 31.42179676 -19.25915662 29.71995092 -22.3125 25.875 C-24.8109058 20.58054438 -25.00762249 15.63943039 -24.3125 9.875 C-19.113969 -0.33640018 -10.86132173 -3.68875078 0 0 Z " fill="#CA1B4E" transform="translate(247.3125,56.125)"/>
<path d="M0 0 C4.34658175 2.60794905 5.61460166 7.31516613 7 12 C8.08379764 16.72929877 8.02471238 21.17614434 8 26 C6.35451172 26.19916016 6.35451172 26.19916016 4.67578125 26.40234375 C3.22134199 26.58062985 1.76691558 26.7590208 0.3125 26.9375 C-0.40873047 27.02451172 -1.12996094 27.11152344 -1.87304688 27.20117188 C-2.57880859 27.28818359 -3.28457031 27.37519531 -4.01171875 27.46484375 C-4.70015869 27.54943848 -5.38859863 27.6340332 -6.09790039 27.72119141 C-8.17348691 27.99390611 -8.17348691 27.99390611 -10.8515625 28.70703125 C-11.56054688 28.80371094 -12.26953125 28.90039062 -13 29 C-14.42476827 27.80717075 -15.84242648 26.6023357 -17.1875 25.3203125 C-19.45008327 23.67213762 -21.46940156 23.24921447 -24.1875 22.625 C-28.61460383 21.45821812 -28.61460383 21.45821812 -30.34375 19.40234375 C-31.48080653 16.92292881 -32.05878127 14.69602368 -31.828125 11.96484375 C-29.58618946 6.64553441 -21.07714777 3.89123505 -16.0625 1.625 C-10.74319544 -0.37499129 -5.62228729 -0.89657738 0 0 Z " fill="#F4F4F5" transform="translate(270,29)"/>
<path d="M0 0 C3.875 1.875 3.875 1.875 5 3 C5.82017524 14.68413587 4.99868993 24.71667191 -0.75 35.1875 C-2.50517662 39.1366474 -2.25538435 42.74359423 -2 47 C-2.66 47 -3.32 47 -4 47 C-4.495 45.02 -4.495 45.02 -5 43 C-6.32 42.67 -7.64 42.34 -9 42 C-9 43.65 -9 45.3 -9 47 C-9.99 46.67 -10.98 46.34 -12 46 C-12 45.67 -12 45.34 -12 45 C-12.66 45 -13.32 45 -14 45 C-13.505 46.98 -13.505 46.98 -13 49 C-18.79807805 52.97582495 -25.17869416 52.99664588 -32 52 C-40.0355502 48.68224721 -44.21709108 42.56581784 -48 35 C-51.3 35 -54.6 35 -58 35 C-58.33 34.34 -58.66 33.68 -59 33 C-55.535 32.505 -55.535 32.505 -52 32 C-51.67 31.01 -51.34 30.02 -51 29 C-48.32136078 28.78281304 -46.58371852 28.64559947 -44.25 30.0625 C-42.43110687 32.88178434 -42.40503961 35.70182032 -42 39 C-41.07609855 41.51171198 -40.52759265 42.69526976 -38.1875 44.046875 C-32.51838717 45.86908984 -26.9327591 47.22285534 -21 46 C-18.67940571 44.65796957 -16.77945358 43.20150822 -14.7890625 41.41015625 C-12.83113578 39.8668996 -11.37978252 39.59121946 -9 39 C-7.96986723 37.35178756 -6.96885372 35.68496298 -6 34 C-5.01 33.67 -4.02 33.34 -3 33 C1.44346623 24.24106863 0.25438381 13.50641737 0 4 C0 2.68 0 1.36 0 0 Z " fill="#251C1C" transform="translate(293,60)"/>
<path d="M0 0 C2.29536501 1.63640855 3.72639186 3.36564606 4.4765625 6.1015625 C4.78958552 10.2334664 4.23624129 11.80422952 1.5703125 15.1015625 C-3.12659867 18.7919927 -7.20619715 18.83681829 -13.0546875 18.1640625 C-16.29408406 16.42867148 -18.47789884 14.74085116 -21.0546875 12.1640625 C-21.4921875 8.8515625 -21.4921875 8.8515625 -21.0546875 5.1640625 C-15.91305368 -1.228239 -7.76495763 -3.15912725 0 0 Z " fill="#2A271E" transform="translate(190.0546875,154.8359375)"/>
<path d="M0 0 C0.66 0 1.32 0 2 0 C2 0.66 2 1.32 2 2 C3.22976563 1.98839844 4.45953125 1.97679687 5.7265625 1.96484375 C7.35937347 1.95545978 8.9921861 1.94636023 10.625 1.9375 C11.83736328 1.92493164 11.83736328 1.92493164 13.07421875 1.91210938 C17.50341918 1.8941045 21.63883424 2.10377338 26 3 C26.33 2.34 26.66 1.68 27 1 C28.98 1.33 30.96 1.66 33 2 C32.34 3.32 31.68 4.64 31 6 C31.495 6.495 31.495 6.495 32 7 C33.23180463 28.91190924 33.23180463 28.91190924 29 37 C26.46875 38.1484375 26.46875 38.1484375 24 39 C22.63921965 41.52372901 22.63921965 41.52372901 22 44 C21.01 43.34 20.02 42.68 19 42 C19.45890625 41.33355469 19.9178125 40.66710937 20.390625 39.98046875 C26.1547318 31.32219909 31.84161253 21.81412007 30 11 C29.09489523 8.28965881 28.4265351 7.26052337 25.97265625 5.76171875 C21.76868852 4.68448655 17.75823128 4.74997609 13.4375 4.8125 C12.58736328 4.81314453 11.73722656 4.81378906 10.86132812 4.81445312 C7.05381062 4.84132972 3.68231802 4.95616462 0 6 C0 7.98 0 9.96 0 12 C1.11375 12.2475 2.2275 12.495 3.375 12.75 C7 14 7 14 8.4375 16.125 C8.623125 16.74375 8.80875 17.3625 9 18 C8.01 17.67 7.02 17.34 6 17 C6.03480469 17.60328125 6.06960938 18.2065625 6.10546875 18.828125 C6.2263972 22.39839357 6.31820367 25.23256762 4.9375 28.5625 C2.02766357 30.7214109 -0.4907966 30.26484554 -4 30 C-3.91306859 28.20741442 -3.80489496 26.41584856 -3.6875 24.625 C-3.60048828 23.12839844 -3.60048828 23.12839844 -3.51171875 21.6015625 C-3.25841797 20.31378906 -3.25841797 20.31378906 -3 19 C0 17 0 17 4 17 C3.67 16.34 3.34 15.68 3 15 C2.360625 14.79375 1.72125 14.5875 1.0625 14.375 C-1.48593849 12.67604101 -1.53861364 11.78196007 -2.25 8.875 C-2.4975 7.59625 -2.745 6.3175 -3 5 C-1.68 5 -0.36 5 1 5 C1 4.34 1 3.68 1 3 C0.34 2.67 -0.32 2.34 -1 2 C-0.67 1.34 -0.34 0.68 0 0 Z " fill="#3D1922" transform="translate(262,57)"/>
<path d="M0 0 C1.32 0.33 2.64 0.66 4 1 C4.33 2.32 4.66 3.64 5 5 C5.66 5 6.32 5 7 5 C7.33 4.34 7.66 3.68 8 3 C9.823321 9.15370839 10.2361959 14.59646678 10 21 C8.0625 20.625 8.0625 20.625 6 20 C5.67 19.34 5.34 18.68 5 18 C4.34 19.98 3.68 21.96 3 24 C5.31 24.33 7.62 24.66 10 25 C8.38405168 27.04119788 6.7143618 29.04072937 5 31 C4.34 31 3.68 31 3 31 C3 33.97 3 36.94 3 40 C2.67 40 2.34 40 2 40 C2 37.36 2 34.72 2 32 C-2.62 32 -7.24 32 -12 32 C-12.33 30.68 -12.66 29.36 -13 28 C-7.87674471 25.54510684 -3.66104589 24.49658297 2 24 C1.68853528 22.10399631 1.37578283 20.20820413 1.0625 18.3125 C0.88847656 17.25675781 0.71445312 16.20101562 0.53515625 15.11328125 C0.06832879 12.39750396 -0.44422616 9.69875765 -1 7 C-2.32 6.67 -3.64 6.34 -5 6 C-5 5.01 -5 4.02 -5 3 C-4.01 2.67 -3.02 2.34 -2 2 C-1.01 3.485 -1.01 3.485 0 5 C0 3.35 0 1.7 0 0 Z " fill="#2B292A" transform="translate(284,102)"/>
<path d="M0 0 C3.5625 0.9375 3.5625 0.9375 6 2.9375 C8.13347754 7.03377688 8.38263343 10.40685997 7.5625 14.9375 C6.30862147 17.64205414 4.68281548 19.81718452 2.5625 21.9375 C-0.1875 22.3125 -0.1875 22.3125 -3.4375 21.9375 C-6.01035724 19.764865 -7.92746919 17.95756162 -9.4375 14.9375 C-9.84001462 9.70480994 -9.23833881 6.39809515 -6.4375 1.9375 C-3.4375 -0.0625 -3.4375 -0.0625 0 0 Z " fill="#252525" transform="translate(124.4375,134.0625)"/>
<path d="M0 0 C1.18722656 -0.05607422 1.18722656 -0.05607422 2.3984375 -0.11328125 C4.625 0.3125 4.625 0.3125 6.390625 1.9921875 C8.63986736 6.22019371 8.11478289 10.65611341 7.625 15.3125 C6.5625 18.4375 6.5625 18.4375 4.625 20.3125 C1.25 21.4375 1.25 21.4375 -2.375 21.3125 C-5.053348 19.15817661 -6.83754419 17.38741161 -8.375 14.3125 C-8.77925814 9.05714419 -8.07018674 5.84041373 -5.375 1.3125 C-3.79602167 -0.26647833 -2.18137428 0.06706491 0 0 Z " fill="#262626" transform="translate(236.375,134.6875)"/>
<path d="M0 0 C4.12593192 2.87855716 7.06537651 6.00862953 8.6875 10.875 C9.4160368 17.7065254 8.95671249 22.40165065 4.6875 27.875 C-0.29558732 31.58788859 -5.05756087 33.16283791 -11.3125 32.875 C-15.97804724 31.42179676 -19.25915662 29.71995092 -22.3125 25.875 C-24.8109058 20.58054438 -25.00762249 15.63943039 -24.3125 9.875 C-19.113969 -0.33640018 -10.86132173 -3.68875078 0 0 Z M-17.875 4.625 C-19.37226142 6.96853961 -20.33063397 9.28006834 -21.3125 11.875 C-21.6425 12.205 -21.9725 12.535 -22.3125 12.875 C-22.35313832 14.54117115 -22.355221 16.20888095 -22.3125 17.875 C-21.6525 17.875 -20.9925 17.875 -20.3125 17.875 C-20.333125 18.47828125 -20.35375 19.0815625 -20.375 19.703125 C-20.31982923 24.52355216 -20.31982923 24.52355216 -17.74609375 28.36328125 C-12.91309319 30.9642111 -8.71928236 31.57264934 -3.3125 30.875 C0.15005794 29.48345604 0.15005794 29.48345604 2.6875 26.875 C4.12667432 23.26083483 4.12667432 23.26083483 4.6875 19.875 C5.3475 19.875 6.0075 19.875 6.6875 19.875 C8.1658226 16.91835481 7.74782783 14.13270263 7.6875 10.875 C7.0275 10.875 6.3675 10.875 5.6875 10.875 C5.56375 10.25625 5.44 9.6375 5.3125 9 C4.81552644 6.68379168 4.81552644 6.68379168 2.6875 4.875 C-3.33094954 2.17707434 -12.64019136 -1.23798567 -17.875 4.625 Z " fill="#A52A4E" transform="translate(247.3125,56.125)"/>
<path d="M0 0 C0.99 0.66 1.98 1.32 3 2 C5.32387947 2.39387788 7.65793749 2.73486085 10 3 C10 3.33 10 3.66 10 4 C7.69 4.33 5.38 4.66 3 5 C3 5.66 3 6.32 3 7 C2.01 7.495 2.01 7.495 1 8 C0.67 8.99 0.34 9.98 0 11 C1.98 10.67 3.96 10.34 6 10 C4.73046875 11.49739583 3.4609375 12.99479167 2.19140625 14.4921875 C-0.16986276 17.48054763 -0.13502932 19.63406298 -0.125 23.375 C-0.12757813 24.33148438 -0.13015625 25.28796875 -0.1328125 26.2734375 C-0.01551878 28.68140854 0.31324049 30.69990068 1 33 C-0.32 32.34 -1.64 31.68 -3 31 C-3.3690205 18.33029613 -3.3690205 18.33029613 -1 13 C-2.65 13 -4.3 13 -6 13 C-6.66 14.98 -7.32 16.96 -8 19 C-10 18 -10 18 -12 16 C-12.59911028 13.23487562 -12.56537669 10.76919195 -12 8 C-10.375 6 -10.375 6 -8 5 C-4.75 4.8125 -4.75 4.8125 -2 5 C-2.33 4.01 -2.66 3.02 -3 2 C-4.62600941 2.0870005 -6.25089678 2.1951781 -7.875 2.3125 C-9.23238281 2.39951172 -9.23238281 2.39951172 -10.6171875 2.48828125 C-13.36221601 2.7882039 -13.36221601 2.7882039 -15 6 C-15.66 6 -16.32 6 -17 6 C-15.97427701 2.6948926 -14.93092146 1.95993445 -11.875 0.1875 C-7.61345229 -1.45292841 -4.42099957 -0.95788324 0 0 Z " fill="#421521" transform="translate(224,48)"/>
<path d="M0 0 C0.33 0.66 0.66 1.32 1 2 C0.0625 4.625 0.0625 4.625 -1 7 C-1.66 7 -2.32 7 -3 7 C-3 8.65 -3 10.3 -3 12 C-3.66 12 -4.32 12 -5 12 C-5 13.65 -5 15.3 -5 17 C-5.66 17 -6.32 17 -7 17 C-9.35651548 29.96891031 -9.35651548 29.96891031 -6 42 C-5.01 42.33 -4.02 42.66 -3 43 C-3 43.66 -3 44.32 -3 45 C0.1939907 45.93940903 3.11276305 46.16444357 6.4375 46.1875 C7.36433594 46.20167969 8.29117188 46.21585938 9.24609375 46.23046875 C12.23793965 45.98008732 14.34948317 45.40706449 17 44 C17.33 43.01 17.66 42.02 18 41 C16.02 40.67 14.04 40.34 12 40 C11.67 38.02 11.34 36.04 11 34 C12.11375 34.9590625 12.11375 34.9590625 13.25 35.9375 C15.7111121 37.78333407 17.03466926 38.56069174 20 39 C20.33 41.31 20.66 43.62 21 46 C14.21264373 49.9730866 6.68607282 49.86915679 -1 49 C-6.17065888 46.57058804 -8.93476356 43.27782646 -11 38 C-12.87143953 25.59952687 -8.43732117 13.91762511 -3 3 C-2.34 3 -1.68 3 -1 3 C-0.67 2.01 -0.34 1.02 0 0 Z " fill="#A02C4E" transform="translate(196,34)"/>
<path d="M0 0 C4.34350174 -0.85166701 8.928816 -0.84891033 13.05859375 0.84375 C15.35572579 2.47432814 16.78185501 4.20441238 17.53125 6.9375 C17.83644964 10.96613525 17.23703853 12.67491859 14.8125 16 C11.80512535 18.13857753 10.58848221 18.51264032 7 18 C7.33 16.35 7.66 14.7 8 13 C8.99 13 9.98 13 11 13 C11 11.02 11 9.04 11 7 C7.5447173 5.27235865 3.76849737 5.3708015 0 6 C-2.60910963 8.3183856 -2.60910963 8.3183856 -4 11 C-4 8.36 -4 5.72 -4 3 C-3.34 3 -2.68 3 -2 3 C-1.34 2.01 -0.68 1.02 0 0 Z " fill="#252214" transform="translate(177,154)"/>
<path d="M0 0 C2.4375 0.75 2.4375 0.75 5 2 C5.8125 4.125 5.8125 4.125 6 6 C7.65 6.33 9.3 6.66 11 7 C11 7.66 11 8.32 11 9 C12.98 9.66 14.96 10.32 17 11 C17 11.33 17 11.66 17 12 C21.95 12 26.9 12 32 12 C32.66 10.68 33.32 9.36 34 8 C34.66 8 35.32 8 36 8 C36 8.66 36 9.32 36 10 C36.598125 9.79375 37.19625 9.5875 37.8125 9.375 C40 9 40 9 43 11 C43.33 9.68 43.66 8.36 44 7 C44.73080266 8.97746603 45.39421747 10.98072489 46 13 C45.67 13.66 45.34 14.32 45 15 C44.401875 14.690625 43.80375 14.38125 43.1875 14.0625 C39.08292169 12.06884768 37.3741965 12.01899968 33.125 13.4375 C25.81969093 15.53995632 17.47350228 16.53737523 10.125 14 C5.98659738 11.35142232 2.63534704 8.17330032 0 4 C0 2.68 0 1.36 0 0 Z " fill="#1E1919" transform="translate(181,74)"/>
<path d="M0 0 C0 0.99 0 1.98 0 3 C-0.56589844 3.13277344 -1.13179687 3.26554687 -1.71484375 3.40234375 C-2.81505859 3.66724609 -2.81505859 3.66724609 -3.9375 3.9375 C-4.66839844 4.11152344 -5.39929688 4.28554688 -6.15234375 4.46484375 C-7.99969898 4.83887569 -7.99969898 4.83887569 -9 6 C-9.32460261 10.03083011 -9.32460261 10.03083011 -9 14 C-8.01 14.66 -7.02 15.32 -6 16 C-5.34 14.35 -4.68 12.7 -4 11 C-3.06576355 14.01031744 -2.95550089 14.86650268 -4 18 C-5.98 18 -7.96 18 -10 18 C-10.33 16.68 -10.66 15.36 -11 14 C-11.66 14 -12.32 14 -13 14 C-13 13.01 -13 12.02 -13 11 C-13.66 11 -14.32 11 -15 11 C-14.39816251 13.02045442 -13.72693904 15.02111039 -13 17 C-12.34 17.33 -11.68 17.66 -11 18 C-11 18.99 -11 19.98 -11 21 C-9.35 21.33 -7.7 21.66 -6 22 C-7.6875 22.8125 -7.6875 22.8125 -10 23 C-13.09308636 20.42242804 -15.77910926 17.88465234 -17 14 C-17.52686308 7.05372617 -17.52686308 7.05372617 -16 4 C-15.01 4 -14.02 4 -13 4 C-12.79375 3.360625 -12.5875 2.72125 -12.375 2.0625 C-11 0 -11 0 -8.1875 -0.8125 C-5.19350972 -0.98861708 -2.88408798 -0.76343505 0 0 Z " fill="#2D1C1E" transform="translate(222,50)"/>
<path d="M0 0 C0.83789062 -0.01611328 1.67578125 -0.03222656 2.5390625 -0.04882812 C7.61380556 -0.0528177 11.30696065 0.35136775 15.625 3.3125 C18.42659655 7.32056443 18.22171115 11.60984787 17.625 16.3125 C14.90705128 26.03044872 14.90705128 26.03044872 11.625 29.3125 C11.5 26.9375 11.5 26.9375 11.625 24.3125 C12.285 23.6525 12.945 22.9925 13.625 22.3125 C14.13005295 19.06402009 14.13005295 19.06402009 14.3125 15.375 C14.39886719 14.12847656 14.48523438 12.88195312 14.57421875 11.59765625 C14.80630962 8.30500754 14.80630962 8.30500754 13.625 5.3125 C12.965 4.9825 12.305 4.6525 11.625 4.3125 C11.625 3.6525 11.625 2.9925 11.625 2.3125 C8.5416866 2.28338679 5.45840875 2.26566318 2.375 2.25 C1.50230469 2.24162109 0.62960937 2.23324219 -0.26953125 2.22460938 C-1.11386719 2.22138672 -1.95820313 2.21816406 -2.828125 2.21484375 C-3.60317383 2.20960693 -4.37822266 2.20437012 -5.17675781 2.19897461 C-7.36783598 2.31213002 -9.27137861 2.70697552 -11.375 3.3125 C-10.05657299 7.26778104 -8.34725188 7.65081785 -4.8125 9.75 C0.36986636 13.36622971 0.36986636 13.36622971 1.45703125 17.3984375 C1.5608672 25.19557307 1.5608672 25.19557307 -0.9296875 28.16796875 C-1.40664063 28.54566406 -1.88359375 28.92335938 -2.375 29.3125 C-3.035 28.9825 -3.695 28.6525 -4.375 28.3125 C-3.715 27.3225 -3.055 26.3325 -2.375 25.3125 C-1.91538589 20.63975656 -1.92772433 18.26072441 -3.9375 14 C-6.93956109 10.69003521 -9.1943327 9.75965407 -13.375 8.3125 C-13.375 6.3325 -13.375 4.3525 -13.375 2.3125 C-8.91225616 -0.22008507 -5.02217208 -0.01913938 0 0 Z " fill="#9E3051" transform="translate(275.375,60.6875)"/>
<path d="M0 0 C0.87527344 -0.01417969 1.75054687 -0.02835938 2.65234375 -0.04296875 C5.0625 0.1875 5.0625 0.1875 8.0625 2.1875 C10.70882287 1.8753236 10.70882287 1.8753236 13.0625 1.1875 C13.0625 2.8375 13.0625 4.4875 13.0625 6.1875 C5.71455328 8.43687144 -1.15336324 9.31833307 -8.875 9.25 C-9.55884766 9.24548828 -10.24269531 9.24097656 -10.94726562 9.23632812 C-12.61071604 9.2246956 -14.2741205 9.20676694 -15.9375 9.1875 C-15.9375 8.8575 -15.9375 8.5275 -15.9375 8.1875 C-14.82375 7.960625 -13.71 7.73375 -12.5625 7.5 C-8.77924011 6.59603714 -8.77924011 6.59603714 -7.625 3.625 C-7.398125 2.820625 -7.17125 2.01625 -6.9375 1.1875 C-4.47380468 -0.04434766 -2.7480499 0.02017658 0 0 Z " fill="#1F1F1F" transform="translate(216.9375,202.8125)"/>
<path d="M0 0 C2.67863922 -0.21718696 4.41628148 -0.35440053 6.75 1.0625 C8.56889313 3.88178434 8.59496039 6.70182032 9 10 C9.65932214 12.16240326 9.65932214 12.16240326 11 14 C13.1305809 15.08728835 13.1305809 15.08728835 15.5625 15.6875 C19.94170404 16.94170404 19.94170404 16.94170404 21 18 C22.68183948 18.23287008 24.3712416 18.41264166 26.0625 18.5625 C26.98160156 18.64628906 27.90070313 18.73007813 28.84765625 18.81640625 C29.91306641 18.90728516 29.91306641 18.90728516 31 19 C30.67 19.66 30.34 20.32 30 21 C27.36 21 24.72 21 22 21 C22 21.66 22 22.32 22 23 C16.36036176 22.48730561 12.12077543 19.48815385 8.51171875 15.25390625 C6.32342071 12.25225849 4.6723821 9.3447642 3 6 C-0.3 6 -3.6 6 -7 6 C-7.33 5.34 -7.66 4.68 -8 4 C-4.535 3.505 -4.535 3.505 -1 3 C-0.67 2.01 -0.34 1.02 0 0 Z " fill="#2A2424" transform="translate(242,89)"/>
<path d="M0 0 C1.14886828 3.44660485 0.83632623 3.98275309 -0.375 7.25 C-2.58886748 14.06345517 -2.72485647 20.88421903 -3 28 C-3.33 26.68 -3.66 25.36 -4 24 C-5.98 24.99 -7.96 25.98 -10 27 C-11.05522307 19.8407173 -11.5268865 13.58352147 -8 7 C-8 6.01 -8 5.02 -8 4 C-6.35 4.33 -4.7 4.66 -3 5 C-2.01 3.35 -1.02 1.7 0 0 Z " fill="#1E1E1E" transform="translate(86,40)"/>
<path d="M0 0 C5.61 0 11.22 0 17 0 C18 7 18 7 17 9 C16.84733388 10.73868744 16.75067404 12.48247501 16.68359375 14.2265625 C16.64169922 15.2578125 16.59980469 16.2890625 16.55664062 17.3515625 C16.51732422 18.43179688 16.47800781 19.51203125 16.4375 20.625 C16.39431641 21.71296875 16.35113281 22.8009375 16.30664062 23.921875 C16.2003547 26.6144517 16.09831943 29.30712253 16 32 C14.02 32.495 14.02 32.495 12 33 C8.72276287 22.07587622 11.59088635 11.44041055 15 1 C10.05 1 5.1 1 0 1 C0 0.67 0 0.34 0 0 Z " fill="#2A2326" transform="translate(168,43)"/>
<path d="M0 0 C2 0 4 0 6 0 C8.4662586 4.69718718 8.05341417 8.70151898 7.625 13.8125 C7.56828125 14.60076172 7.5115625 15.38902344 7.453125 16.20117188 C7.31249026 18.13489961 7.15766112 20.06758595 7 22 C6.67 22 6.34 22 6 22 C5.87625 20.88625 5.7525 19.7725 5.625 18.625 C5.3534187 14.96896323 5.3534187 14.96896323 3 13 C2.80664062 13.78246094 2.61328125 14.56492187 2.4140625 15.37109375 C2.15367188 16.38300781 1.89328125 17.39492187 1.625 18.4375 C1.36976562 19.44683594 1.11453125 20.45617187 0.8515625 21.49609375 C0 24 0 24 -2 25 C-2 24.34 -2 23.68 -2 23 C-2.66 22.67 -3.32 22.34 -4 22 C-3.34 22 -2.68 22 -2 22 C-1.93941406 20.74703125 -1.87882812 19.4940625 -1.81640625 18.203125 C-1.73197744 16.55207276 -1.64733061 14.90103165 -1.5625 13.25 C-1.50352539 12.0125 -1.50352539 12.0125 -1.44335938 10.75 C-1.40146484 9.95078125 -1.35957031 9.1515625 -1.31640625 8.328125 C-1.27974854 7.5949707 -1.24309082 6.86181641 -1.20532227 6.10644531 C-0.99885215 3.98822395 -0.56867914 2.0480544 0 0 Z " fill="#2F2D2E" transform="translate(68,108)"/>
<path d="M0 0 C-0.66 1.32 -1.32 2.64 -2 4 C-0.68 4.66 0.64 5.32 2 6 C-6.0125322 7.03387512 -13.92905177 7.10466648 -22 7 C-21.67 5.35 -21.34 3.7 -21 2 C-13.71084647 -0.77682039 -7.74486479 -1.87754298 0 0 Z " fill="#2B2B2B" transform="translate(64,132)"/>
<path d="M0 0 C0.99 0 1.98 0 3 0 C3 0.66 3 1.32 3 2 C10.74338636 2.38958535 10.74338636 2.38958535 18 0 C17.34 1.32 16.68 2.64 16 4 C14.25008666 4.02715383 12.50005055 4.04646551 10.75 4.0625 C9.28820312 4.07990234 9.28820312 4.07990234 7.796875 4.09765625 C5.34241322 4.01195577 3.33831086 3.70706066 1 3 C1 3.99 1 4.98 1 6 C1.66 6 2.32 6 3 6 C3 6.99 3 7.98 3 9 C4.32 9 5.64 9 7 9 C7.33 9.99 7.66 10.98 8 12 C12.99652074 13.66550691 18.05772683 13.63421165 23.0625 12 C23.701875 11.67 24.34125 11.34 25 11 C25 10.01 25 9.02 25 8 C24.34 7.67 23.68 7.34 23 7 C23.928125 6.773125 24.85625 6.54625 25.8125 6.3125 C29.54469713 4.77571295 30.1724155 3.47241055 32 0 C32.66 0 33.32 0 34 0 C32.6462794 3.9425368 30.90741066 6.59534929 28.125 9.6875 C27.44695312 10.45449219 26.76890625 11.22148438 26.0703125 12.01171875 C22.57419136 15.36931434 19.88176546 16.29022296 15.0625 16.3125 C9.80714689 16.17399875 7.16724524 15.10487847 3.37109375 11.41796875 C-0.86145263 6.91045416 -0.86145263 6.91045416 -1.4375 3.125 C-1 1 -1 1 0 0 Z " fill="#9F2F50" transform="translate(253,90)"/>
<path d="M0 0 C2.31 0.33 4.62 0.66 7 1 C6.34 2.32 5.68 3.64 5 5 C5.33 5.33 5.66 5.66 6 6 C7.23180463 27.91190924 7.23180463 27.91190924 3 36 C0.46875 37.1484375 0.46875 37.1484375 -2 38 C-3.36078035 40.52372901 -3.36078035 40.52372901 -4 43 C-4.99 42.34 -5.98 41.68 -7 41 C-6.54109375 40.33355469 -6.0821875 39.66710937 -5.609375 38.98046875 C0.1547318 30.32219909 5.84161253 20.81412007 4 10 C3.0571729 7.17669908 2.43339081 6.23863437 -0.19921875 4.7890625 C-3.43946364 3.87619016 -6.4535804 3.57857088 -9.8125 3.375 C-10.97394531 3.30023438 -12.13539063 3.22546875 -13.33203125 3.1484375 C-14.21246094 3.09945312 -15.09289062 3.05046875 -16 3 C-16 2.67 -16 2.34 -16 2 C-10.72 2 -5.44 2 0 2 C0 1.34 0 0.68 0 0 Z " fill="#4A1925" transform="translate(288,58)"/>
<path d="M0 0 C0 0.33 0 0.66 0 1 C-1.98 1 -3.96 1 -6 1 C-6.33 1.99 -6.66 2.98 -7 4 C-6.34 4.66 -5.68 5.32 -5 6 C-5.33 6.99 -5.66 7.98 -6 9 C-5.01 9.33 -4.02 9.66 -3 10 C-5.77236494 9.91308261 -8.54147078 9.80622639 -11.3125 9.6875 C-12.49102539 9.65366211 -12.49102539 9.65366211 -13.69335938 9.61914062 C-14.45068359 9.58369141 -15.20800781 9.54824219 -15.98828125 9.51171875 C-16.68477783 9.48553467 -17.38127441 9.45935059 -18.09887695 9.43237305 C-20.49350359 8.88776232 -21.43272547 7.84170838 -23 6 C-21.68 5.67 -20.36 5.34 -19 5 C-18.67 3.68 -18.34 2.36 -18 1 C-11.96445452 0.30739642 -6.07593562 -0.11251733 0 0 Z " fill="#2D2B2C" transform="translate(154,36)"/>
<path d="M0 0 C5.86880212 0.03845873 11.40182626 0.94766352 17.125 2.1875 C14.66872427 4.819224 12.57147963 7.00277263 9.125 8.1875 C6.875 7.8125 6.875 7.8125 5.125 7.1875 C4.795 7.8475 4.465 8.5075 4.125 9.1875 C3.465 9.1875 2.805 9.1875 2.125 9.1875 C2.125 7.8675 2.125 6.5475 2.125 5.1875 C0.145 5.1875 -1.835 5.1875 -3.875 5.1875 C-4.535 3.8675 -5.195 2.5475 -5.875 1.1875 C-4.21573236 -0.47176764 -2.27923091 0.01614186 0 0 Z " fill="#242424" transform="translate(280.875,149.8125)"/>
<path d="M0 0 C0.99 1.485 0.99 1.485 2 3 C2.66 2.34 3.32 1.68 4 1 C4.99 1 5.98 1 7 1 C9.6855594 3.6855594 10.06049974 6.37621328 11 10 C12.98 9.67 14.96 9.34 17 9 C17 9.99 17 10.98 17 12 C16.34 12.66 15.68 13.32 15 14 C15 13.34 15 12.68 15 12 C14.236875 12.33 13.47375 12.66 12.6875 13 C10 14 10 14 7 14 C6.67 12.35 6.34 10.7 6 9 C4.04783565 10.95216435 3.15173355 12.53199953 2 15 C0.73694665 9.92523206 -0.27036084 5.27203646 0 0 Z " fill="#272727" transform="translate(75,63)"/>
<path d="M0 0 C0.78503906 0.00515625 1.57007813 0.0103125 2.37890625 0.015625 C3.55259766 0.00789062 3.55259766 0.00789062 4.75 0 C6.94140625 0.265625 6.94140625 0.265625 9.94140625 2.265625 C9.61140625 4.245625 9.28140625 6.225625 8.94140625 8.265625 C5.41146012 9.44227371 2.64685212 9.46413103 -1.05859375 9.265625 C-2.04859375 8.605625 -3.03859375 7.945625 -4.05859375 7.265625 C-4.37109375 4.765625 -4.37109375 4.765625 -4.05859375 2.265625 C-2.05859375 0.265625 -2.05859375 0.265625 0 0 Z " fill="#E2D871" transform="translate(179.05859375,158.734375)"/>
<path d="M0 0 C0.99 0.66 1.98 1.32 3 2 C3.66 2 4.32 2 5 2 C4.690625 2.556875 4.38125 3.11375 4.0625 3.6875 C2.94238179 6.12540433 2.43962636 8.36224186 2 11 C1.01 11.33 0.02 11.66 -1 12 C-0.34 12.33 0.32 12.66 1 13 C0.34 14.98 -0.32 16.96 -1 19 C-1.33 18.34 -1.66 17.68 -2 17 C-3.98 17.99 -3.98 17.99 -6 19 C-7.4301492 15.19543642 -6.53792878 12.70329177 -5.25 8.9375 C-4.90453125 7.89464844 -4.5590625 6.85179688 -4.203125 5.77734375 C-3.07319665 3.16897019 -2.15803616 1.79216222 0 0 Z M-1 3 C0 6 0 6 0 6 Z " fill="#252424" transform="translate(76,91)"/>
<path d="M0 0 C0.66 0 1.32 0 2 0 C3.38125018 2.76250036 3.19079306 4.94731099 3 8 C1 10 1 10 -2 11 C-2.33 11.66 -2.66 12.32 -3 13 C-6.42232972 14.14077657 -9.08673217 14.09815117 -12.6875 14.0625 C-14.45673828 14.04896484 -14.45673828 14.04896484 -16.26171875 14.03515625 C-17.61716797 14.01775391 -17.61716797 14.01775391 -19 14 C-19 13.34 -19 12.68 -19 12 C-21.97 11.505 -21.97 11.505 -25 11 C-24.67 10.34 -24.34 9.68 -24 9 C-22.15535156 9.03480469 -22.15535156 9.03480469 -20.2734375 9.0703125 C-18.6406311 9.08908039 -17.0078181 9.10727949 -15.375 9.125 C-14.56675781 9.14175781 -13.75851563 9.15851563 -12.92578125 9.17578125 C-8.19906185 9.21420986 -4.44612298 8.82737094 0 7 C0 4.69 0 2.38 0 0 Z " fill="#311C20" transform="translate(216,73)"/>
<path d="M0 0 C2.99324263 1.0975223 3.84610901 1.67682892 5.25 4.625 C5.4975 5.40875 5.745 6.1925 6 7 C4.35 7.33 2.7 7.66 1 8 C1.66 8 2.32 8 3 8 C2.67 10.31 2.34 12.62 2 15 C1.566875 14.401875 1.13375 13.80375 0.6875 13.1875 C0.130625 12.465625 -0.42625 11.74375 -1 11 C-1.3815625 10.46375 -1.763125 9.9275 -2.15625 9.375 C-5.04063095 7.22393624 -7.66189181 7.71546491 -11.1875 7.8125 C-13.09595703 7.85310547 -13.09595703 7.85310547 -15.04296875 7.89453125 C-16.01878906 7.92933594 -16.99460937 7.96414062 -18 8 C-14.90665162 4.90665162 -11.1780156 5.24660131 -6.9453125 4.7578125 C-3.54322581 3.88247455 -2.22656655 2.65682096 0 0 Z " fill="#1D1C1C" transform="translate(274,22)"/>
<path d="M0 0 C0.33 0.99 0.66 1.98 1 3 C3.00016466 4.20882096 3.00016466 4.20882096 5 5 C2.77376199 5.53321262 0.54384996 6.05110119 -1.6875 6.5625 C-2.92886719 6.85253906 -4.17023438 7.14257812 -5.44921875 7.44140625 C-8.76111454 7.96241956 -10.81860153 7.91852996 -14 7 C-13.875 5.1875 -13.875 5.1875 -13 3 C-8.61602577 0.07735051 -5.19863564 -0.31191814 0 0 Z " fill="#292929" transform="translate(69,158)"/>
<path d="M0 0 C0 0.99 0 1.98 0 3 C-1.63978318 4.04349839 -3.31464976 5.03182008 -5 6 C-7.39553903 7.93028972 -9.70267994 9.95425966 -12 12 C-12.45375 11.21625 -12.9075 10.4325 -13.375 9.625 C-14.88428742 6.96301969 -14.88428742 6.96301969 -17 5 C-15.75 3.4375 -15.75 3.4375 -14 2 C-12.65737935 2.29369827 -11.32303717 2.6278958 -10 3 C-9.01 2.34 -8.02 1.68 -7 1 C-3.40449438 -1.13483146 -3.40449438 -1.13483146 0 0 Z " fill="#272727" transform="translate(283,178)"/>
<path d="M0 0 C2.97 0.33 5.94 0.66 9 1 C9.33 1.99 9.66 2.98 10 4 C10.66 4.33 11.32 4.66 12 5 C12.73075648 7.3140622 13.40138258 9.64828869 14 12 C14.66 12 15.32 12 16 12 C16 13.65 16 15.3 16 17 C12.12299465 12.18716578 12.12299465 12.18716578 10.5625 9.8125 C6.81740511 5.46818993 1.38005216 5.60298252 -3.98828125 5.1484375 C-4.65214844 5.09945312 -5.31601563 5.05046875 -6 5 C-6 4.67 -6 4.34 -6 4 C-4.35 3.67 -2.7 3.34 -1 3 C-0.67 2.01 -0.34 1.02 0 0 Z " fill="#2A1B1D" transform="translate(240,50)"/>
<path d="M0 0 C1.670625 0.061875 1.670625 0.061875 3.375 0.125 C3.705 1.445 4.035 2.765 4.375 4.125 C3.715 4.125 3.055 4.125 2.375 4.125 C2.08625 4.8675 1.7975 5.61 1.5 6.375 C0.55197356 8.69239797 -0.47345911 10.90417115 -1.625 13.125 C-3.625 12.125 -3.625 12.125 -5.625 10.125 C-6.12486848 7.28272455 -5.9041285 5.05584925 -5.625 2.125 C-3.625 0.125 -3.625 0.125 0 0 Z " fill="#9B314D" transform="translate(217.625,53.875)"/>
<path d="M0 0 C0.33 0.99 0.66 1.98 1 3 C1.66 2.34 2.32 1.68 3 1 C3.02721176 2.89575251 3.04649136 4.79161979 3.0625 6.6875 C3.07410156 7.74324219 3.08570313 8.79898438 3.09765625 9.88671875 C3.00865425 12.72410262 2.64939838 15.2438919 2 18 C1.67 18 1.34 18 1 18 C0.67 16.35 0.34 14.7 0 13 C-3.27773504 13.75150023 -3.27773504 13.75150023 -5 17 C-4.67 11.72 -4.34 6.44 -4 1 C-2.68 0.67 -1.36 0.34 0 0 Z " fill="#191818" transform="translate(291,132)"/>
<path d="M0 0 C0.33 0.99 0.66 1.98 1 3 C-0.37691962 5.75383923 -2.36720042 6.51483101 -5 8 C-4.34 8.66 -3.68 9.32 -3 10 C-4.32 10 -5.64 10 -7 10 C-7.33 9.01 -7.66 8.02 -8 7 C-7.67 6.34 -7.34 5.68 -7 5 C-8.98 5.66 -10.96 6.32 -13 7 C-13.66 6.34 -14.32 5.68 -15 5 C-16.31747324 4.30251417 -17.64914193 3.63040043 -19 3 C-16.58424393 2.49521515 -14.16755639 1.99602358 -11.75 1.5 C-11.06808594 1.35691406 -10.38617188 1.21382812 -9.68359375 1.06640625 C-6.35366879 0.38748951 -3.41667449 0 0 0 Z " fill="#302E2F" transform="translate(237,199)"/>
<path d="M0 0 C1 3 1 3 -0.51171875 6.37109375 C-1.22970596 7.73042909 -1.95543083 9.08569641 -2.6875 10.4375 C-6.18096147 17.11402828 -8.90988588 23.73960359 -11 31 C-11.97591583 27.61682513 -11.85856655 25.4342662 -11 22 C-11.99 21.67 -12.98 21.34 -14 21 C-13.01 20.67 -12.02 20.34 -11 20 C-10.9175 19.2575 -10.835 18.515 -10.75 17.75 C-9.8603054 14.48778646 -8.51496251 13.19045122 -6 11 C-6.99 11.33 -7.98 11.66 -9 12 C-8.75 9.625 -8.75 9.625 -8 7 C-6.1875 6 -6.1875 6 -4 5 C-1.77183014 2.46557594 -1.77183014 2.46557594 0 0 Z " fill="#171616" transform="translate(87,82)"/>
<path d="M0 0 C2.83022097 3.99560608 1.76210446 7.42737323 1 12 C-0.98 11.34 -2.96 10.68 -5 10 C-4.73323796 11.98491642 -4.73323796 11.98491642 -4 14 C-3.01 14.33 -2.02 14.66 -1 15 C-1.33 15.99 -1.66 16.98 -2 18 C-3.32 18 -4.64 18 -6 18 C-6.19456705 16.04235617 -6.38044247 14.08384679 -6.5625 12.125 C-6.66691406 11.03445312 -6.77132813 9.94390625 -6.87890625 8.8203125 C-7 6 -7 6 -6 4 C-4.02 4.495 -4.02 4.495 -2 5 C-1.34 3.35 -0.68 1.7 0 0 Z " fill="#2A2829" transform="translate(284,38)"/>
<path d="M0 0 C0.66 0.33 1.32 0.66 2 1 C1.54625 1.94875 1.0925 2.8975 0.625 3.875 C-2.8272628 12.0393561 -5.49558002 23.76104996 -2.1015625 32.24609375 C-1.14461939 33.87832649 -0.08049323 35.44679099 1 37 C1 37.66 1 38.32 1 39 C-0.32 38.67 -1.64 38.34 -3 38 C-3 36.68 -3 35.36 -3 34 C-3.66 34 -4.32 34 -5 34 C-5.14714061 30.20875253 -5.23467827 26.41825346 -5.3125 22.625 C-5.35439453 21.56410156 -5.39628906 20.50320312 -5.43945312 19.41015625 C-5.55712068 11.7382317 -4.04830162 6.51927175 0 0 Z " fill="#40141F" transform="translate(189,42)"/>
<path d="M0 0 C0 1.32 0 2.64 0 4 C-0.99 4.33 -1.98 4.66 -3 5 C-2.01 5.33 -1.02 5.66 0 6 C-3.9813783 7.3271261 -7.85045227 7.06915913 -12 7 C-12.33 5.68 -12.66 4.36 -13 3 C-8.37802694 0.78145293 -5.23175837 -0.38281159 0 0 Z " fill="#252525" transform="translate(284,127)"/>
<path d="M0 0 C0.495 0.165 0.99 0.33 1.5 0.5 C1.5 1.16 1.5 1.82 1.5 2.5 C2.304375 2.768125 3.10875 3.03625 3.9375 3.3125 C4.783125 3.704375 5.62875 4.09625 6.5 4.5 C6.83 5.49 7.16 6.48 7.5 7.5 C6.18 7.5 4.86 7.5 3.5 7.5 C3.5 6.84 3.5 6.18 3.5 5.5 C2.84 5.5 2.18 5.5 1.5 5.5 C1.5 4.84 1.5 4.18 1.5 3.5 C-2.13 2.84 -5.76 2.18 -9.5 1.5 C-9.5 2.16 -9.5 2.82 -9.5 3.5 C-10.61375 3.7475 -11.7275 3.995 -12.875 4.25 C-16.54615198 5.11005339 -16.54615198 5.11005339 -17.9375 7.625 C-18.123125 8.24375 -18.30875 8.8625 -18.5 9.5 C-19.16 9.5 -19.82 9.5 -20.5 9.5 C-20.5 8.84 -20.5 8.18 -20.5 7.5 C-19.84 7.5 -19.18 7.5 -18.5 7.5 C-18.29375 6.9225 -18.0875 6.345 -17.875 5.75 C-13.62097851 -1.21112608 -7.30579013 -1.46115803 0 0 Z " fill="#8E2A46" transform="translate(217.5,24.5)"/>
<path d="M0 0 C0.99 0.33 1.98 0.66 3 1 C2.34 1 1.68 1 1 1 C1.34786708 2.97536745 1.34786708 2.97536745 2 5 C2.66 5.33 3.32 5.66 4 6 C-2.07439825 10.90153173 -2.07439825 10.90153173 -5.9375 11.3125 C-6.9584375 11.1578125 -6.9584375 11.1578125 -8 11 C-8.23828125 8.7109375 -8.23828125 8.7109375 -8 6 C-6.35546875 4.1640625 -6.35546875 4.1640625 -4.1875 2.625 C-3.47980469 2.10164062 -2.77210937 1.57828125 -2.04296875 1.0390625 C-1.36878906 0.69617188 -0.69460937 0.35328125 0 0 Z " fill="#181818" transform="translate(72,184)"/>
<path d="M0 0 C2.4375 0.75 2.4375 0.75 5 2 C5.8125 4.125 5.8125 4.125 6 6 C7.65 6.33 9.3 6.66 11 7 C11 7.66 11 8.32 11 9 C12.98 9.66 14.96 10.32 17 11 C16.67 11.66 16.34 12.32 16 13 C15.071875 12.835 14.14375 12.67 13.1875 12.5 C10.04378647 11.92251612 10.04378647 11.92251612 7 12 C5.17578125 10.390625 5.17578125 10.390625 3.3125 8.25 C2.68988281 7.55390625 2.06726563 6.8578125 1.42578125 6.140625 C0 4 0 4 0 0 Z " fill="#222422" transform="translate(181,74)"/>
<path d="M0 0 C0.33 0 0.66 0 1 0 C1.33 2.31 1.66 4.62 2 7 C2.33 7 2.66 7 3 7 C3.12375 8.175625 3.12375 8.175625 3.25 9.375 C3.72806339 12.14749104 3.72806339 12.14749104 6.0625 13.3125 C6.701875 13.539375 7.34125 13.76625 8 14 C6.576875 13.9690625 6.576875 13.9690625 5.125 13.9375 C2.09333717 13.77448174 2.09333717 13.77448174 0 15 C0 14.34 0 13.68 0 13 C-6.93 12.505 -6.93 12.505 -14 12 C-14 11.67 -14 11.34 -14 11 C-11.36 11 -8.72 11 -6 11 C-5.67 9.68 -5.34 8.36 -5 7 C-3.68 6.67 -2.36 6.34 -1 6 C-0.67 4.02 -0.34 2.04 0 0 Z " fill="#323232" transform="translate(291,138)"/>
<path d="M0 0 C5.61 0 11.22 0 17 0 C18.04035022 7.28245151 17.54769117 11.66483719 14 18 C12.15051751 15.28017282 12.00209244 13.97175201 12.25 10.625 C13 7 13 7 15 1 C10.05 1 5.1 1 0 1 C0 0.67 0 0.34 0 0 Z " fill="#3A3A3B" transform="translate(168,43)"/>
<path d="M0 0 C1.3303125 0.433125 1.3303125 0.433125 2.6875 0.875 C5 2 5 2 5.75 3.875 C5.87375 4.926875 5.87375 4.926875 6 6 C6.32296089 7.33588366 6.65489233 8.66966561 7 10 C6.51789063 9.57847656 6.03578125 9.15695313 5.5390625 8.72265625 C4.59160156 7.90087891 4.59160156 7.90087891 3.625 7.0625 C2.99851563 6.51722656 2.37203125 5.97195312 1.7265625 5.41015625 C0.04367666 3.93041376 0.04367666 3.93041376 -2 3 C-2 2.34 -2 1.68 -2 1 C-9.56198897 0.55298587 -14.76335625 0.46425909 -21 5 C-20.05960738 2.64901846 -19.44282987 1.27726735 -17.265625 -0.0859375 C-14.63180896 -1.14854604 -12.32600515 -1.48603249 -9.5 -1.75 C-8.5615625 -1.84796875 -7.623125 -1.9459375 -6.65625 -2.046875 C-3.79607351 -1.9964013 -2.43291229 -1.42744747 0 0 Z " fill="#351D23" transform="translate(221,24)"/>
<path d="M0 0 C-0.33 1.32 -0.66 2.64 -1 4 C-5.8333472 4.08333357 -10.23692563 3.95261487 -15 3 C-13.68 2.01 -12.36 1.02 -11 0 C-11.66 -0.66 -12.32 -1.32 -13 -2 C-7.76481271 -3.34619102 -4.52566413 -3.01710942 0 0 Z " fill="#454545" transform="translate(313,155)"/>
<path d="M0 0 C-1.61594832 2.04119788 -3.2856382 4.04072937 -5 6 C-5.66 6 -6.32 6 -7 6 C-7 8.97 -7 11.94 -7 15 C-7.33 15 -7.66 15 -8 15 C-8 12.36 -8 9.72 -8 7 C-9.98 7 -11.96 7 -14 7 C-13.34 5.68 -12.68 4.36 -12 3 C-11.34 3 -10.68 3 -10 3 C-10 2.01 -10 1.02 -10 0 C-6.42355152 -1.2380014 -3.66305234 -0.74926071 0 0 Z " fill="#373636" transform="translate(294,127)"/>
<path d="M0 0 C4.875 0.875 4.875 0.875 6 2 C6.29386153 5.72224599 6.14809171 6.77786243 4 10 C0.875 10.1875 0.875 10.1875 -2 10 C-1.46274105 6.62294375 -0.88935377 3.303314 0 0 Z " fill="#B32A51" transform="translate(262,76)"/>
<path d="M0 0 C4.36446586 3.77467318 6.62054488 7.35881363 8 13 C8 14.32 8 15.64 8 17 C2.55106131 18.19876651 -0.22169095 17.91360308 -5 15 C-4.67 14.34 -4.34 13.68 -4 13 C-1.03 13.99 1.94 14.98 5 16 C4.74476126 14.37247769 4.47025506 12.74796804 4.1875 11.125 C4.03667969 10.22007813 3.88585937 9.31515625 3.73046875 8.3828125 C3.16948699 5.65587522 3.16948699 5.65587522 0 4 C0 2.68 0 1.36 0 0 Z " fill="#9C2C4C" transform="translate(226,33)"/>
<path d="M0 0 C0.66 0 1.32 0 2 0 C1.67 0.99 1.34 1.98 1 3 C0.67 2.01 0.34 1.02 0 0 Z M-10 2 C-9.34 2 -8.68 2 -8 2 C-8 2.66 -8 3.32 -8 4 C-7.13375 3.7834375 -7.13375 3.7834375 -6.25 3.5625 C-4.16666667 3.04166667 -2.08333333 2.52083333 0 2 C0.66 2.99 1.32 3.98 2 5 C1.01 5.33 0.02 5.66 -1 6 C0.87824891 7.87824891 4.03935276 7.39102397 6.5625 7.5625 C7.76003906 7.64628906 8.95757812 7.73007812 10.19140625 7.81640625 C11.11824219 7.87699219 12.04507813 7.93757813 13 8 C8.69503511 10.8699766 5.05067874 10.83587671 0 10 C-3.62628087 8.39597346 -6.93086105 6.52061199 -10 4 C-10 3.34 -10 2.68 -10 2 Z " fill="#1B191A" transform="translate(134,37)"/>
<path d="M0 0 C0.66 0 1.32 0 2 0 C2.20625 0.845625 2.4125 1.69125 2.625 2.5625 C4.37081488 6.92703721 6.12890193 10.22131407 10 13 C13.97155299 14.1499267 17.88447723 14.67368832 22 15 C22 15.33 22 15.66 22 16 C13.91355006 16.60774989 7.2759547 15.62808277 0.9375 10.25 C-0.50616394 6.78520655 -0.1866777 3.73355401 0 0 Z " fill="#451623" transform="translate(250,91)"/>
<path d="M0 0 C1.67542976 0.28604898 3.34385343 0.61781233 5 1 C5.33 2.65 5.66 4.3 6 6 C1.9096916 9.73936478 -1.86782097 12.74684823 -7 15 C-6.67 14.01 -6.34 13.02 -6 12 C-3.9375 11.3125 -3.9375 11.3125 -2 11 C-2 10.34 -2 9.68 -2 9 C-1.34 8.67 -0.68 8.34 0 8 C-0.2784375 6.2984375 -0.2784375 6.2984375 -0.5625 4.5625 C-0.706875 3.386875 -0.85125 2.21125 -1 1 C-0.67 0.67 -0.34 0.34 0 0 Z " fill="#1C1C1C" transform="translate(265,184)"/>
<path d="M0 0 C1.8871875 0.0309375 1.8871875 0.0309375 3.8125 0.0625 C4.1425 0.7225 4.4725 1.3825 4.8125 2.0625 C6.7925 1.7325 8.7725 1.4025 10.8125 1.0625 C8.44305987 3.68135488 5.97516898 5.48116551 2.8125 7.0625 C-0.13969131 6.07843623 -1.76236794 4.94002159 -4.1875 3.0625 C-4.8475 2.7325 -5.5075 2.4025 -6.1875 2.0625 C-6.5175 2.7225 -6.8475 3.3825 -7.1875 4.0625 C-7.1875 3.0725 -7.1875 2.0825 -7.1875 1.0625 C-4.43671116 0.14557039 -2.82801087 -0.04636083 0 0 Z " fill="#1C1C1C" transform="translate(239.1875,30.9375)"/>
<path d="M0 0 C1.1446875 0.2784375 1.1446875 0.2784375 2.3125 0.5625 C5.08967375 1.22819173 5.08967375 1.22819173 8 0 C10 3 10 3 9.625 5.6875 C9.41875 6.450625 9.2125 7.21375 9 8 C8.01 8.33 7.02 8.66 6 9 C3.95703125 7.78515625 3.95703125 7.78515625 1.8125 6.0625 C1.09707031 5.49660156 0.38164062 4.93070313 -0.35546875 4.34765625 C-0.89816406 3.90292969 -1.44085938 3.45820313 -2 3 C-1.34 2.01 -0.68 1.02 0 0 Z " fill="#F4F4F5" transform="translate(222,17)"/>
<path d="M0 0 C1.19496094 0.03867188 1.19496094 0.03867188 2.4140625 0.078125 C4.87709038 0.26959713 7.21501773 0.71444838 9.625 1.25 C11.2912553 1.2870279 12.95901319 1.29759962 14.625 1.25 C15.285 2.57 15.945 3.89 16.625 5.25 C14.954375 5.0025 14.954375 5.0025 13.25 4.75 C9.90467967 4.2044542 9.90467967 4.2044542 7.625 4.25 C8.285 4.91 8.945 5.57 9.625 6.25 C6.625 6.25 6.625 6.25 4.5 4.1875 C0.76436143 1.67000444 -1.28193022 2.18914033 -5.58203125 2.890625 C-6.17371094 3.00921875 -6.76539062 3.1278125 -7.375 3.25 C-5.02528012 0.40638995 -3.66332642 -0.12502821 0 0 Z " fill="#1B1B1B" transform="translate(88.375,182.75)"/>
<path d="M0 0 C0.33 0.99 0.66 1.98 1 3 C3.01508358 3.73323796 3.01508358 3.73323796 5 4 C5 5.32 5 6.64 5 8 C5.66 8 6.32 8 7 8 C7 8.99 7 9.98 7 11 C4.03 11 1.06 11 -2 11 C-1.67 9.02 -1.34 7.04 -1 5 C-2.32 4.67 -3.64 4.34 -5 4 C-4.0409375 3.8453125 -4.0409375 3.8453125 -3.0625 3.6875 C-2.381875 3.460625 -1.70125 3.23375 -1 3 C-0.67 2.01 -0.34 1.02 0 0 Z M0 5 C1 7 1 7 1 7 Z " fill="#363536" transform="translate(70,153)"/>
<path d="M0 0 C4.45001157 0.50857275 7.13849946 1.4844422 10 5 C10.59952534 9.05660136 10.68308036 12.95274889 10 17 C8.46875 18.87109375 8.46875 18.87109375 7 20 C6.34 19.67 5.68 19.34 5 19 C5.66 18.01 6.32 17.02 7 16 C7.4775733 11.14467144 7.51341394 8.95601216 5.1875 4.625 C3.08914751 1.85425677 3.08914751 1.85425677 0 0 Z " fill="#922947" transform="translate(266,70)"/>
<path d="M0 0 C0 0.33 0 0.66 0 1 C-0.62648437 1.10957031 -1.25296875 1.21914063 -1.8984375 1.33203125 C-2.71570313 1.49058594 -3.53296875 1.64914063 -4.375 1.8125 C-5.59316406 2.03873047 -5.59316406 2.03873047 -6.8359375 2.26953125 C-9.35820641 2.87544942 -9.35820641 2.87544942 -11 6 C-11 6.66 -11 7.32 -11 8 C-10.34 8.33 -9.68 8.66 -9 9 C-10.98 9 -12.96 9 -15 9 C-16.125 6.6875 -16.125 6.6875 -17 4 C-15 1 -15 1 -12.4375 0.3125 C-8.27705498 -0.06572227 -4.17383087 -0.08347662 0 0 Z " fill="#1C1A1B" transform="translate(163,36)"/>
<path d="M0 0 C-0.66 1.98 -1.32 3.96 -2 6 C-1.67 6.33 -1.34 6.66 -1 7 C-0.95936168 8.66617115 -0.957279 10.33388095 -1 12 C-4 13 -4 13 -7 12 C-7.44117322 7.50003317 -7.52867608 5.65388883 -4.625 2.0625 C-2 0 -2 0 0 0 Z " fill="#2F2D2E" transform="translate(176,155)"/>
<path d="M0 0 C2.31 0.33 4.62 0.66 7 1 C6.67 1.556875 6.34 2.11375 6 2.6875 C4.8690399 5.30284522 4.84337026 7.1806646 5 10 C4.236875 9.195625 3.47375 8.39125 2.6875 7.5625 C-1.24545194 3.81247606 -4.42927496 3.80193144 -9.6875 3.4375 C-10.86699219 3.35371094 -12.04648437 3.26992188 -13.26171875 3.18359375 C-14.16535156 3.12300781 -15.06898438 3.06242187 -16 3 C-16 2.67 -16 2.34 -16 2 C-10.72 2 -5.44 2 0 2 C0 1.34 0 0.68 0 0 Z " fill="#4A1E2A" transform="translate(288,58)"/>
<path d="M0 0 C1.22589844 0.15275391 1.22589844 0.15275391 2.4765625 0.30859375 C3.41628906 0.43427734 3.41628906 0.43427734 4.375 0.5625 C3.625 3 3.625 3 2.375 5.5625 C0.25 6.375 0.25 6.375 -1.625 6.5625 C-1.955 5.5725 -2.285 4.5825 -2.625 3.5625 C-5.265 3.5625 -7.905 3.5625 -10.625 3.5625 C-6.69868091 0.55232203 -4.96380923 -0.63820404 0 0 Z " fill="#2C2B2B" transform="translate(245.625,27.4375)"/>
<path d="M0 0 C1.98 0 3.96 0 6 0 C6.99 2.97 7.98 5.94 9 9 C8.34 9.66 7.68 10.32 7 11 C6.67 9.68 6.34 8.36 6 7 C5.01 7.33 4.02 7.66 3 8 C2 7 2 7 1.9375 4.4375 C1.958125 3.633125 1.97875 2.82875 2 2 C1.34 2 0.68 2 0 2 C0 1.34 0 0.68 0 0 Z " fill="#282828" transform="translate(275,28)"/>
<path d="M0 0 C0.28875 0.598125 0.5775 1.19625 0.875 1.8125 C2.04742026 4.19327792 2.04742026 4.19327792 4 7 C5.65 6.67 7.3 6.34 9 6 C9 6.99 9 7.98 9 9 C8.34 9.66 7.68 10.32 7 11 C7 10.34 7 9.68 7 9 C5.8553125 9.495 5.8553125 9.495 4.6875 10 C2 11 2 11 -1 11 C-1.33 9.68 -1.66 8.36 -2 7 C-1.34 7 -0.68 7 0 7 C-0.2784375 5.824375 -0.2784375 5.824375 -0.5625 4.625 C-1 2 -1 2 0 0 Z " fill="#353535" transform="translate(83,66)"/>
<path d="M0 0 C0.99 0.33 1.98 0.66 3 1 C2.34 1.825 1.68 2.65 1 3.5 C-1.62175695 7.40947503 -1.37315161 10.37291998 -1 15 C-0.58268982 17.35529281 -0.58268982 17.35529281 0 19 C-0.99 19 -1.98 19 -3 19 C-4.9687409 15.0625182 -4.46471449 10.29106498 -4 6 C-2.92640635 3.52932815 -1.78251861 2.06103714 0 0 Z " fill="#AB2D52" transform="translate(207,49)"/>
<path d="M0 0 C0.66 0.33 1.32 0.66 2 1 C-5.26268795 4.90033242 -12.60677281 8.29816082 -21 8 C-19.4375 6 -19.4375 6 -17 4 C-14.66666667 4 -12.33333333 4 -10 4 C-7.30407312 3.05824443 -4.73553743 1.95934857 -2.13671875 0.77734375 C-1.43160156 0.52082031 -0.72648437 0.26429688 0 0 Z " fill="#161515" transform="translate(252,200)"/>
<path d="M0 0 C-0.78375 0.61875 -1.5675 1.2375 -2.375 1.875 C-5.93123833 4.49665842 -5.93123833 4.49665842 -7.4140625 8.3828125 C-7.51847656 9.74019531 -7.51847656 9.74019531 -7.625 11.125 C-7.69976562 12.03507813 -7.77453125 12.94515625 -7.8515625 13.8828125 C-7.90054688 14.58148438 -7.94953125 15.28015625 -8 16 C-8.99 15.67 -9.98 15.34 -11 15 C-11.31433405 9.76109914 -10.80778856 6.47166327 -8 2 C-4.77208445 -0.1519437 -3.71599191 -0.20086443 0 0 Z " fill="#323232" transform="translate(126,134)"/>
<path d="M0 0 C1.9375 0.75 1.9375 0.75 4 2 C5.19614053 5.18970807 4.95841601 7.90670923 4.5625 11.25 C4.46066406 12.14203125 4.35882813 13.0340625 4.25390625 13.953125 C4.17011719 14.62859375 4.08632813 15.3040625 4 16 C2.26830404 12.8377726 1.2871024 9.73257278 0.375 6.25 C0.11460937 5.26515625 -0.14578125 4.2803125 -0.4140625 3.265625 C-0.60742188 2.51796875 -0.80078125 1.7703125 -1 1 C-0.67 0.67 -0.34 0.34 0 0 Z " fill="#282424" transform="translate(293,60)"/>
<path d="M0 0 C0.33 0 0.66 0 1 0 C1.12117187 0.92683594 1.24234375 1.85367188 1.3671875 2.80859375 C1.53476563 4.00613281 1.70234375 5.20367187 1.875 6.4375 C2.03742188 7.63246094 2.19984375 8.82742187 2.3671875 10.05859375 C2.57601562 11.02925781 2.78484375 11.99992187 3 13 C3.66 13.33 4.32 13.66 5 14 C5 14.99 5 15.98 5 17 C6.65 17.33 8.3 17.66 10 18 C8.3125 18.8125 8.3125 18.8125 6 19 C2.90691364 16.42242804 0.22089074 13.88465234 -1 10 C-1.52686308 3.05372617 -1.52686308 3.05372617 0 0 Z " fill="#4B1522" transform="translate(206,54)"/>
<path d="M0 0 C0.66 0 1.32 0 2 0 C3.38125018 2.76250036 3.19079306 4.94731099 3 8 C0.25902195 10.74097805 -1.50997793 10.98573859 -5.35546875 11.09765625 C-6.62003906 11.08605469 -7.88460937 11.07445313 -9.1875 11.0625 C-10.45980469 11.05347656 -11.73210937 11.04445313 -13.04296875 11.03515625 C-14.50669922 11.01775391 -14.50669922 11.01775391 -16 11 C-16 10.67 -16 10.34 -16 10 C-15.09636719 9.86722656 -14.19273437 9.73445313 -13.26171875 9.59765625 C-12.08222656 9.42105469 -10.90273437 9.24445313 -9.6875 9.0625 C-8.51574219 8.88847656 -7.34398437 8.71445313 -6.13671875 8.53515625 C-2.98358597 8.07906969 -2.98358597 8.07906969 0 7 C0 4.69 0 2.38 0 0 Z " fill="#3F151F" transform="translate(216,73)"/>
<path d="M0 0 C7.92 0.66 15.84 1.32 24 2 C24 2.33 24 2.66 24 3 C6.52427184 4.89320388 6.52427184 4.89320388 0 0 Z " fill="#484848" transform="translate(148,202)"/>
<path d="M0 0 C1.98 0 3.96 0 6 0 C6.33 2.31 6.66 4.62 7 7 C2.25 6.125 2.25 6.125 0 5 C0 3.35 0 1.7 0 0 Z " fill="#272727" transform="translate(266,170)"/>
<path d="M0 0 C-0.33 1.65 -0.66 3.3 -1 5 C-4.28696233 5.79953138 -5.71023192 6.09658936 -9 5 C-8.6875 3.0625 -8.6875 3.0625 -8 1 C-5.07175348 0.02391783 -3.04386724 -0.08226668 0 0 Z " fill="#F3E230" transform="translate(186,161)"/>
<path d="M0 0 C1.32 0 2.64 0 4 0 C4.33 0.99 4.66 1.98 5 3 C7.00016466 4.20882096 7.00016466 4.20882096 9 5 C7.43883181 5.33951619 5.87598662 5.67132544 4.3125 6 C3.00732422 6.2784375 3.00732422 6.2784375 1.67578125 6.5625 C-0.93712964 6.98972047 -3.35813038 7.07616201 -6 7 C-3 5 -3 5 -1 5 C-0.67 3.35 -0.34 1.7 0 0 Z " fill="#161616" transform="translate(65,158)"/>
<path d="M0 0 C0.66 0 1.32 0 2 0 C3.125 2.8125 3.125 2.8125 4 6 C3.01 7.485 3.01 7.485 2 9 C1.83300768 12.12521833 1.83300768 12.12521833 2 15 C1.01 15.33 0.02 15.66 -1 16 C-1.02685095 13.52076199 -1.04676547 11.0418116 -1.0625 8.5625 C-1.07506836 7.50192383 -1.07506836 7.50192383 -1.08789062 6.41992188 C-1.09653588 4.61306441 -1.05220011 2.80612397 -1 1 C-0.67 0.67 -0.34 0.34 0 0 Z " fill="#1E1E1E" transform="translate(79,72)"/>
<path d="M0 0 C0.66 0 1.32 0 2 0 C2.16276042 2.01822917 2.32552083 4.03645833 2.48828125 6.0546875 C2.87393036 8.39519216 2.87393036 8.39519216 6 10 C6.66 8.35 7.32 6.7 8 5 C8.93423645 8.01031744 9.04449911 8.86650268 8 12 C6.02 12 4.04 12 2 12 C-0.60018816 8.09971775 -0.15085514 4.52565431 0 0 Z " fill="#491825" transform="translate(210,56)"/>
<path d="M0 0 C2 3 2 3 2 5 C0.68799596 6.35432675 -0.64631404 7.68733482 -2 9 C-2.33 9.66 -2.66 10.32 -3 11 C-6.56454416 12.37097852 -10.23355995 12.07243154 -14 12 C-13.484375 11.7525 -12.96875 11.505 -12.4375 11.25 C-11.2309375 10.63125 -11.2309375 10.63125 -10 10 C-8.824375 9.4225 -7.64875 8.845 -6.4375 8.25 C-2.83654464 6.20997379 -1.50002883 3.88242757 0 0 Z " fill="#491724" transform="translate(255,77)"/>
<path d="M0 0 C0 0.66 0 1.32 0 2 C-1.8253125 2.185625 -1.8253125 2.185625 -3.6875 2.375 C-7.06479059 2.78891306 -9.89756695 3.54573451 -13 5 C-12.67 3.68 -12.34 2.36 -12 1 C-7.58774263 -0.47075246 -4.51718381 -1.36884358 0 0 Z " fill="#232622" transform="translate(222,50)"/>
<path d="M0 0 C0.66 0 1.32 0 2 0 C1.54548413 2.12107407 1.08124723 3.85781735 0 5.75 C-1.48717258 9.09613831 -1.6363108 12.36310804 -2 16 C-2.33 16 -2.66 16 -3 16 C-3.33 17.98 -3.66 19.96 -4 22 C-4.33 22 -4.66 22 -5 22 C-5.60241173 14.1686475 -3.50822044 7.01644087 0 0 Z " fill="#444444" transform="translate(80,36)"/>
<path d="M0 0 C3 1 3 1 5 3 C8.93670488 4.31223496 11.12488144 3.24296256 15 2 C14.6875 3.9375 14.6875 3.9375 14 6 C8 8 8 8 6.2109375 7.109375 C5.60507813 6.66078125 4.99921875 6.2121875 4.375 5.75 C3.76398438 5.31171875 3.15296875 4.8734375 2.5234375 4.421875 C1 3 1 3 0 0 Z " fill="#1B1B1B" transform="translate(100,190)"/>
<path d="M0 0 C0.33 0.66 0.66 1.32 1 2 C1.66 2 2.32 2 3 2 C2.67 2.99 2.34 3.98 2 5 C1.34 5 0.68 5 0 5 C0 3.35 0 1.7 0 0 Z M-1 5 C-0.67 5 -0.34 5 0 5 C-0.33 7.97 -0.66 10.94 -1 14 C-2.32 14.33 -3.64 14.66 -5 15 C-4.67 13.68 -4.34 12.36 -4 11 C-3.34 11 -2.68 11 -2 11 C-2.309375 10.071875 -2.309375 10.071875 -2.625 9.125 C-2.810625 8.073125 -2.810625 8.073125 -3 7 C-2.34 6.34 -1.68 5.68 -1 5 Z " fill="#222623" transform="translate(259,71)"/>
<path d="M0 0 C0.33 1.32 0.66 2.64 1 4 C-3.29 3.67 -7.58 3.34 -12 3 C-11.01 2.67 -10.02 2.34 -9 2 C-9 1.34 -9 0.68 -9 0 C-5.52176885 -1.15941038 -3.54104422 -0.70820884 0 0 Z " fill="#282727" transform="translate(89,133)"/>
<path d="M0 0 C1.26328125 0.01804688 2.5265625 0.03609375 3.828125 0.0546875 C4.79234375 0.07789063 5.7565625 0.10109375 6.75 0.125 C6.75 0.455 6.75 0.785 6.75 1.125 C0.315 1.62 0.315 1.62 -6.25 2.125 C-6.40811388 5.17770463 -6.40811388 5.17770463 -5.25 8.125 C-7.6875 7.375 -7.6875 7.375 -10.25 6.125 C-11.0625 4 -11.0625 4 -11.25 2.125 C-7.54583874 -0.25090142 -4.32015427 -0.08000286 0 0 Z " fill="#BE2152" transform="translate(275.25,61.875)"/>
<path d="M0 0 C0.99 0.66 1.98 1.32 3 2 C3 2.66 3 3.32 3 4 C2.01 4.495 2.01 4.495 1 5 C0.67 5.99 0.34 6.98 0 8 C0.66 8.33 1.32 8.66 2 9 C-0.31 9.33 -2.62 9.66 -5 10 C-4.67 9.01 -4.34 8.02 -4 7 C-3.34 7 -2.68 7 -2 7 C-2.33 5.68 -2.66 4.36 -3 3 C-2.34 3 -1.68 3 -1 3 C-0.67 2.01 -0.34 1.02 0 0 Z " fill="#3A1D25" transform="translate(224,51)"/>
<path d="M0 0 C3.20787899 1.64124041 5.25902549 3.73837053 7.6875 6.375 C7.3575 7.365 7.0275 8.355 6.6875 9.375 C6.0275 8.385 5.3675 7.395 4.6875 6.375 C4.0275 7.035 3.3675 7.695 2.6875 8.375 C2.625625 7.75625 2.56375 7.1375 2.5 6.5 C1.87009554 4.10382071 1.87009554 4.10382071 -0.8125 3.25 C-1.6375 2.96125 -2.4625 2.6725 -3.3125 2.375 C-3.6425 1.715 -3.9725 1.055 -4.3125 0.375 C-2.3125 -0.625 -2.3125 -0.625 0 0 Z " fill="#182621" transform="translate(223.3125,21.625)"/>
<path d="M0 0 C1.134375 0.020625 2.26875 0.04125 3.4375 0.0625 C1.38516315 2.3102975 0.43082739 3.0647242 -2.5625 4.0625 C-4.29045352 4.13052967 -6.02085365 4.14745645 -7.75 4.125 C-9.10158203 4.11146484 -9.10158203 4.11146484 -10.48046875 4.09765625 C-11.16753906 4.08605469 -11.85460937 4.07445313 -12.5625 4.0625 C-12.5625 3.4025 -12.5625 2.7425 -12.5625 2.0625 C-10.51171875 1.83463542 -8.4609375 1.60677083 -6.41015625 1.37890625 C-3.20046765 0.82925556 -4.00105232 0.0701939 0 0 Z " fill="#121310" transform="translate(276.5625,107.9375)"/>
<path d="M0 0 C0.66 0.99 1.32 1.98 2 3 C3.32 2.67 4.64 2.34 6 2 C5.34 4.31 4.68 6.62 4 9 C3.67 8.34 3.34 7.68 3 7 C1.02 7.99 1.02 7.99 -1 9 C-2.0326802 6.21176345 -2.04509293 5.1322726 -1.0625 2.25 C-0.711875 1.5075 -0.36125 0.765 0 0 Z M0 4 C1 6 1 6 1 6 Z " fill="#222021" transform="translate(71,101)"/>
<path d="M0 0 C0.33 0.99 0.66 1.98 1 3 C0.525625 3.86625 0.05125 4.7325 -0.4375 5.625 C-2.42183429 9.91116206 -2.27826193 13.36230122 -2 18 C-2.66 18 -3.32 18 -4 18 C-6.16531956 13.66936088 -4.87308196 8.58368029 -4 4 C-3.34 4 -2.68 4 -2 4 C-1.34 2.68 -0.68 1.36 0 0 Z " fill="#131211" transform="translate(293,89)"/>
<path d="M0 0 C3.63 0 7.26 0 11 0 C11 0.66 11 1.32 11 2 C11.804375 2.268125 12.60875 2.53625 13.4375 2.8125 C14.7059375 3.4003125 14.7059375 3.4003125 16 4 C16.33 4.99 16.66 5.98 17 7 C15.68 7 14.36 7 13 7 C13 6.34 13 5.68 13 5 C12.34 5 11.68 5 11 5 C11 4.34 11 3.68 11 3 C7.37 2.34 3.74 1.68 0 1 C0 0.67 0 0.34 0 0 Z " fill="#A72D50" transform="translate(208,25)"/>
<path d="M0 0 C0.66 0 1.32 0 2 0 C0.49087042 4.98012761 -2.55661849 8.24259942 -6 12 C-6.99 11.67 -7.98 11.34 -9 11 C-8.34 11 -7.68 11 -7 11 C-7 10.01 -7 9.02 -7 8 C-7.66 7.67 -8.32 7.34 -9 7 C-7.6078125 6.6596875 -7.6078125 6.6596875 -6.1875 6.3125 C-2.45530287 4.77571295 -1.8275845 3.47241055 0 0 Z " fill="#BB2D57" transform="translate(285,90)"/>
<path d="M0 0 C6.02635611 -0.11816385 11.23569031 0.07856344 17 2 C13.6853333 4.02907167 11.5684021 4.12742133 7.75 3.625 C6.85796875 3.51414062 5.9659375 3.40328125 5.046875 3.2890625 C4.37140625 3.19367188 3.6959375 3.09828125 3 3 C3 2.34 3 1.68 3 1 C2.01 0.67 1.02 0.34 0 0 Z " fill="#3F1723" transform="translate(253,89)"/>
<path d="M0 0 C0.33 0 0.66 0 1 0 C1.05425013 2.87525669 1.09379277 5.74947646 1.125 8.625 C1.14175781 9.43324219 1.15851563 10.24148437 1.17578125 11.07421875 C1.21420986 15.80093815 0.82737094 19.55387702 -1 24 C-1.33 24 -1.66 24 -2 24 C-2.125 16.375 -2.125 16.375 -1 13 C-0.77548542 10.77425665 -0.59217122 8.54418481 -0.4375 6.3125 C-0.35371094 5.13300781 -0.26992188 3.95351562 -0.18359375 2.73828125 C-0.12300781 1.83464844 -0.06242187 0.93101563 0 0 Z " fill="#3E161F" transform="translate(293,64)"/>
<path d="M0 0 C0.66 0 1.32 0 2 0 C2 0.66 2 1.32 2 2 C7.94 2 13.88 2 20 2 C20 2.33 20 2.66 20 3 C6.0039635 4.63627984 6.0039635 4.63627984 1 4 C0.34 3.34 -0.32 2.68 -1 2 C-0.67 1.34 -0.34 0.68 0 0 Z " fill="#2F171C" transform="translate(262,57)"/>
<path d="M0 0 C1 3 1 3 -0.5625 6.5625 C-2.32791033 9.49865614 -2.9356298 9.97152857 -6.25 11.4375 C-7.61125 11.7159375 -7.61125 11.7159375 -9 12 C-8.75 9.625 -8.75 9.625 -8 7 C-6.1875 6 -6.1875 6 -4 5 C-1.77183014 2.46557594 -1.77183014 2.46557594 0 0 Z " fill="#1C1C1C" transform="translate(87,82)"/>
<path d="M0 0 C5.4389165 -0.21755666 9.87080814 -0.10428384 15 2 C14.67 2.66 14.34 3.32 14 4 C6.575 3.01 6.575 3.01 -1 2 C-0.67 1.34 -0.34 0.68 0 0 Z " fill="#2E2D2D" transform="translate(207,18)"/>
<path d="M0 0 C1.91423658 0.81210037 3.52072017 1.52072017 5 3 C6.32848691 4.00642948 7.66150329 5.00692179 9 6 C6.64561267 7.42944945 5.51967567 8.08661261 2.75 7.625 C2.1725 7.41875 1.595 7.2125 1 7 C1 5.35 1 3.7 1 2 C0.01 1.67 -0.98 1.34 -2 1 C-1.34 0.67 -0.68 0.34 0 0 Z " fill="#303030" transform="translate(248,194)"/>
<path d="M0 0 C0.33 1.65 0.66 3.3 1 5 C-0.32 5.33 -1.64 5.66 -3 6 C-3.33 5.34 -3.66 4.68 -4 4 C-4.99 3.67 -5.98 3.34 -7 3 C-7 2.34 -7 1.68 -7 1 C-4.53721199 -0.231394 -2.7204945 -0.07159196 0 0 Z " fill="#313131" transform="translate(103,171)"/>
<path d="M0 0 C2.97 0.495 2.97 0.495 6 1 C6.33 2.32 6.66 3.64 7 5 C4.69 5 2.38 5 0 5 C0 3.35 0 1.7 0 0 Z " fill="#1B1B1B" transform="translate(306,153)"/>
<path d="M0 0 C2 2 2 2 2.375 5.875 C2.31541346 9.15225968 2.14649924 9.81687595 0 12.5 C-0.66 12.995 -1.32 13.49 -2 14 C-1.33333333 9.33333333 -0.66666667 4.66666667 0 0 Z " fill="#39131D" transform="translate(272,76)"/>
<path d="M0 0 C-0.33 2.31 -0.66 4.62 -1 7 C-1.33 6.34 -1.66 5.68 -2 5 C-4.51083114 6.25541557 -4.87125446 7.50063488 -6 10 C-6.66 8.35 -7.32 6.7 -8 5 C-7.01 4.67 -6.02 4.34 -5 4 C-4.67 3.34 -4.34 2.68 -4 2 C-4.66 1.34 -5.32 0.68 -6 0 C-3 -1 -3 -1 0 0 Z " fill="#1D1D19" transform="translate(192,35)"/>
<path d="M0 0 C1.32 0.33 2.64 0.66 4 1 C3.25 5.75 3.25 5.75 1 8 C0.34 8 -0.32 8 -1 8 C-1.625 5.6875 -1.625 5.6875 -2 3 C-1.34 2.01 -0.68 1.02 0 0 Z " fill="#272627" transform="translate(81,39)"/>
<path d="M0 0 C2.475 0.99 2.475 0.99 5 2 C3.60667426 5.36720387 2.0210714 6.9859524 -1 9 C-2.60031344 5.79937313 -1.03173691 3.27728194 0 0 Z " fill="#F0F0F0" transform="translate(266,175)"/>
<path d="M0 0 C2.31 0.66 4.62 1.32 7 2 C4 4 4 4 1.4375 5.4375 C-1.23823502 6.9227919 -1.23823502 6.9227919 -3 10 C-3 7.36 -3 4.72 -3 2 C-2.34 2 -1.68 2 -1 2 C-0.67 1.34 -0.34 0.68 0 0 Z " fill="#181309" transform="translate(176,155)"/>
<path d="M0 0 C0.99 0.33 1.98 0.66 3 1 C3 1.99 3 2.98 3 4 C-4.26 4 -11.52 4 -19 4 C-19 3.67 -19 3.34 -19 3 C-12.73 2.67 -6.46 2.34 0 2 C0 1.34 0 0.68 0 0 Z " fill="#0B0B0B" transform="translate(317,127)"/>
<path d="M0 0 C1.98 0.66 3.96 1.32 6 2 C6 2.66 6 3.32 6 4 C6.99 4.33 7.98 4.66 9 5 C9 5.66 9 6.32 9 7 C4.71193127 6.52354792 2.73352513 5.34097516 0 2 C0 1.34 0 0.68 0 0 Z " fill="#1A221D" transform="translate(255,105)"/>
<path d="M0 0 C3.40312738 1.05875074 6.01353231 2.00902154 9 4 C9.1875 6.625 9.1875 6.625 9 9 C8.01 8.67 7.02 8.34 6 8 C6.66 8 7.32 8 8 8 C8 7.34 8 6.68 8 6 C6.68 6 5.36 6 4 6 C3.896875 5.360625 3.79375 4.72125 3.6875 4.0625 C3.460625 3.381875 3.23375 2.70125 3 2 C2.01 1.67 1.02 1.34 0 1 C0 0.67 0 0.34 0 0 Z " fill="#191919" transform="translate(295,179)"/>
<path d="M0 0 C2.41103827 0.96441531 3.77404758 1.68797047 5.3125 3.8125 C6.17031512 6.54191176 5.75644808 8.27678692 5 11 C1.91964644 7.91964644 0.93083199 4.18874395 0 0 Z " fill="#292525" transform="translate(188,155)"/>
<path d="M0 0 C2.97 0.495 2.97 0.495 6 1 C6 2.65 6 4.3 6 6 C3.08482708 4.92598892 1.22189824 4.22189824 -1 2 C-0.67 1.34 -0.34 0.68 0 0 Z " fill="#2C2628" transform="translate(225,87)"/>
<path d="M0 0 C-0.66 1.65 -1.32 3.3 -2 5 C-2.66 5 -3.32 5 -4 5 C-4 4.34 -4 3.68 -4 3 C-5.65 3.33 -7.3 3.66 -9 4 C-8.3125 2.0625 -8.3125 2.0625 -7 0 C-4.12060581 -0.93580311 -2.74490212 -1.37245106 0 0 Z " fill="#1B1B1B" transform="translate(93,75)"/>
<path d="M0 0 C1.2065625 0.0309375 1.2065625 0.0309375 2.4375 0.0625 C1.4475 0.5575 1.4475 0.5575 0.4375 1.0625 C0.05531233 2.71864657 -0.27645102 4.38707024 -0.5625 6.0625 C-0.8925 6.7225 -1.2225 7.3825 -1.5625 8.0625 C-2.2225 8.0625 -2.8825 8.0625 -3.5625 8.0625 C-3.60491723 5.72955225 -3.60342937 3.39547433 -3.5625 1.0625 C-2.5625 0.0625 -2.5625 0.0625 0 0 Z " fill="#C61B48" transform="translate(217.5625,55.9375)"/>
<path d="M0 0 C0.33 0.66 0.66 1.32 1 2 C1.66 2 2.32 2 3 2 C3 2.66 3 3.32 3 4 C0.03 4.66 -2.94 5.32 -6 6 C-6 5.01 -6 4.02 -6 3 C-4.02 2.01 -2.04 1.02 0 0 Z " fill="#B52A54" transform="translate(216,43)"/>
<path d="M0 0 C0.66 0 1.32 0 2 0 C2.33 1.32 2.66 2.64 3 4 C4.32 4.33 5.64 4.66 7 5 C7 5.66 7 6.32 7 7 C7.66 7 8.32 7 9 7 C9 7.66 9 8.32 9 9 C5.0873016 7.6957672 2.62689759 6.21065261 0 3 C0 2.01 0 1.02 0 0 Z " fill="#982D4B" transform="translate(225,79)"/>
<path d="M0 0 C0.33 0.66 0.66 1.32 1 2 C0.0625 4.625 0.0625 4.625 -1 7 C-1.66 7 -2.32 7 -3 7 C-3 10.3 -3 13.6 -3 17 C-3.33 17 -3.66 17 -4 17 C-4.44534366 10.04769059 -4.67289916 5.40303965 0 0 Z " fill="#922F4B" transform="translate(227,60)"/>
<path d="M0 0 C-3.38023125 2.9746035 -6.72154854 3.78911751 -11 5 C-11.33 5.66 -11.66 6.32 -12 7 C-12.66 7 -13.32 7 -14 7 C-12.93813626 3.57843906 -11.93942552 2.96799839 -8.6875 1.25 C-5.44511292 0.15088574 -3.35841908 -0.30531083 0 0 Z " fill="#531426" transform="translate(221,47)"/>
<path d="M0 0 C0.99 0.33 1.98 0.66 3 1 C2.67 1.99 2.34 2.98 2 4 C1.34 4 0.68 4 0 4 C-0.66 5.65 -1.32 7.3 -2 9 C-2.33 9 -2.66 9 -3 9 C-3.36923077 3.46153846 -3.36923077 3.46153846 -1.5 1.125 C-1.005 0.75375 -0.51 0.3825 0 0 Z " fill="#391620" transform="translate(197,28)"/>
<path d="M0 0 C2 3 2 3 1.625 5.1875 C1.41875 5.785625 1.2125 6.38375 1 7 C-1.97 6.505 -1.97 6.505 -5 6 C-4.67 5.01 -4.34 4.02 -4 3 C-3.01 3 -2.02 3 -1 3 C-0.67 2.01 -0.34 1.02 0 0 Z " fill="#2E2C2D" transform="translate(77,149)"/>
<path d="M0 0 C2.09350689 3.4019487 2.17942163 6.05272412 2 10 C1.01 10.33 0.02 10.66 -1 11 C-1.14285714 3.57142857 -1.14285714 3.57142857 0 0 Z " fill="#E8E6E7" transform="translate(68,146)"/>
<path d="M0 0 C0.33 0 0.66 0 1 0 C1 2.31 1 4.62 1 7 C1.66 7.33 2.32 7.66 3 8 C1.68 8.99 0.36 9.98 -1 11 C-2.0257259 6.58937864 -2.03684712 4.07369424 0 0 Z " fill="#302E2F" transform="translate(73,94)"/>
<path d="M0 0 C0.66 0.33 1.32 0.66 2 1 C1.67 1.99 1.34 2.98 1 4 C1.99 5.485 1.99 5.485 3 7 C2.34 7 1.68 7 1 7 C0.67 7.66 0.34 8.32 0 9 C-0.99 8.67 -1.98 8.34 -3 8 C-2.37240135 5.07120629 -1.41377341 2.63904371 0 0 Z " fill="#EAEAEA" transform="translate(131,149)"/>
<path d="M0 0 C0.66 0.33 1.32 0.66 2 1 C0.25740319 10.59453303 0.25740319 10.59453303 -3 14 C-3.125 11.625 -3.125 11.625 -3 9 C-2.34 8.34 -1.68 7.68 -1 7 C-0.59952556 4.67724823 -0.2602896 2.34260643 0 0 Z " fill="#AC3055" transform="translate(290,76)"/>
<path d="M0 0 C0.7425 0.0825 1.485 0.165 2.25 0.25 C2.25 0.91 2.25 1.57 2.25 2.25 C-0.5625 3.8125 -0.5625 3.8125 -3.75 5.25 C-4.74 4.92 -5.73 4.59 -6.75 4.25 C-3.42692308 0.31153846 -3.42692308 0.31153846 0 0 Z " fill="#F0EEEF" transform="translate(95.75,33.75)"/>
<path d="M0 0 C2.97 0.495 2.97 0.495 6 1 C6 1.66 6 2.32 6 3 C1.61538462 6 1.61538462 6 -1 6 C-0.67 4.02 -0.34 2.04 0 0 Z " fill="#EEEFF0" transform="translate(199,17)"/>
<path d="M0 0 C0.99 0.33 1.98 0.66 3 1 C3.94921875 3.06640625 3.94921875 3.06640625 4.6875 5.5625 C4.93886719 6.38878906 5.19023437 7.21507813 5.44921875 8.06640625 C5.63097656 8.70449219 5.81273437 9.34257813 6 10 C2.46413986 6.82679218 0.41421969 4.83256305 0 0 Z " fill="#171E1C" transform="translate(246,94)"/>
<path d="M0 0 C0.33 0.99 0.66 1.98 1 3 C1.66 3 2.32 3 3 3 C3.125 6.375 3.125 6.375 3 10 C2.34 10.66 1.68 11.32 1 12 C0.67 8.04 0.34 4.08 0 0 Z " fill="#BD2351" transform="translate(252,64)"/>
<path d="M0 0 C0.33 0 0.66 0 1 0 C1.35233161 5.37305699 1.35233161 5.37305699 1 8 C-1 10 -1 10 -3 11 C-2.44894091 7.0507432 -1.61064629 3.65079826 0 0 Z " fill="#932B48" transform="translate(190,43)"/>
<path d="M0 0 C2.25 -0.3125 2.25 -0.3125 5 0 C7.375 2.3125 7.375 2.3125 9 5 C8.67 5.99 8.34 6.98 8 8 C7.4225 7.236875 6.845 6.47375 6.25 5.6875 C4.28296907 3.33799083 2.51523256 1.70676495 0 0 Z " fill="#551629" transform="translate(219,26)"/>
<path d="M0 0 C1.98 0.66 3.96 1.32 6 2 C5.67 3.32 5.34 4.64 5 6 C2.525 5.01 2.525 5.01 0 4 C0 2.68 0 1.36 0 0 Z " fill="#2A2A2A" transform="translate(110,195)"/>
<path d="M0 0 C0.99 0.33 1.98 0.66 3 1 C1.515 3.475 1.515 3.475 0 6 C-0.99 5.67 -1.98 5.34 -3 5 C-1.125 1.125 -1.125 1.125 0 0 Z " fill="#262626" transform="translate(67,187)"/>
<path d="M0 0 C2.475 0.99 2.475 0.99 5 2 C2.37801226 4.15377564 0.35595828 5.40072174 -3 6 C-2.67 4.68 -2.34 3.36 -2 2 C-1.34 2 -0.68 2 0 2 C0 1.34 0 0.68 0 0 Z " fill="#2F2F2F" transform="translate(110,189)"/>
<path d="M0 0 C0.66 0.99 1.32 1.98 2 3 C1.5390625 5.26171875 1.5390625 5.26171875 0.625 7.6875 C0.18027344 8.89986328 0.18027344 8.89986328 -0.2734375 10.13671875 C-0.51320313 10.75160156 -0.75296875 11.36648437 -1 12 C-1.66 11.34 -2.32 10.68 -3 10 C-2.67342446 6.24438133 -1.8830622 3.26397448 0 0 Z " fill="#2F2F2F" transform="translate(83,164)"/>
<path d="M0 0 C0.66 0 1.32 0 2 0 C2 2.97 2 5.94 2 9 C1.01 8.67 0.02 8.34 -1 8 C-1.04241723 5.66705225 -1.04092937 3.33297433 -1 1 C-0.67 0.67 -0.34 0.34 0 0 Z " fill="#383838" transform="translate(116,141)"/>
<path d="M0 0 C4.16138263 -0.08159574 7.9472484 0.01751476 12 1 C11.34 2.32 10.68 3.64 10 5 C9.01 4.67 8.02 4.34 7 4 C6.67 3.01 6.34 2.02 6 1 C4.02 1 2.04 1 0 1 C0 0.67 0 0.34 0 0 Z " fill="#3E3E3E" transform="translate(52,131)"/>
<path d="M0 0 C3.3 0 6.6 0 10 0 C7 3 7 3 4.95703125 3.07421875 C1.97851562 2.53710938 1.97851562 2.53710938 -1 2 C-0.67 1.34 -0.34 0.68 0 0 Z " fill="#1D1D1E" transform="translate(267,55)"/>
<path d="M0 0 C0 0.33 0 0.66 0 1 C-0.59167969 1.10957031 -1.18335938 1.21914063 -1.79296875 1.33203125 C-6.41345763 2.25914403 -10.0876779 3.22351335 -14 6 C-13.08486681 3.71216703 -12.34515354 2.26550272 -10.375 0.75 C-6.86146845 -0.35953628 -3.67700382 -0.12256679 0 0 Z " fill="#39141B" transform="translate(214,23)"/>
<path d="M0 0 C1.98 0.99 3.96 1.98 6 3 C5.34 3.66 4.68 4.32 4 5 C1.375 4.625 1.375 4.625 -1 4 C-1 1 -1 1 0 0 Z " fill="#EEEEEE" transform="translate(99,192)"/>
<path d="M0 0 C0.66 1.32 1.32 2.64 2 4 C1.34 4 0.68 4 0 4 C0 4.66 0 5.32 0 6 C1.32 5.34 2.64 4.68 4 4 C2.25 7.875 2.25 7.875 0 9 C-1.125 2.25 -1.125 2.25 0 0 Z " fill="#E2DEDF" transform="translate(291,96)"/>
<path d="M0 0 C1.65 0.33 3.3 0.66 5 1 C5 1.99 5 2.98 5 4 C3.68 3.67 2.36 3.34 1 3 C0.67 3.99 0.34 4.98 0 6 C-1.24546405 3.50907189 -0.7767578 2.58919267 0 0 Z " fill="#8C2E46" transform="translate(262,76)"/>
<path d="M0 0 C1.32 0.33 2.64 0.66 4 1 C4.33 2.32 4.66 3.64 5 5 C5.66 5 6.32 5 7 5 C7 6.65 7 8.3 7 10 C4.3513141 6.80331012 2.06007659 3.60513403 0 0 Z " fill="#461420" transform="translate(249,57)"/>
<path d="M0 0 C1.00000429 4.00001715 0.80688405 6.05523353 0 10 C-0.99 9.67 -1.98 9.34 -3 9 C-2.01 6.03 -1.02 3.06 0 0 Z " fill="#222021" transform="translate(71,119)"/>
<path d="M0 0 C0.99 0.33 1.98 0.66 3 1 C2.6875 4.375 2.6875 4.375 2 8 C1.01 8.66 0.02 9.32 -1 10 C-0.67 6.7 -0.34 3.4 0 0 Z " fill="#3F1822" transform="translate(267,77)"/>
<path d="M0 0 C0.66 0 1.32 0 2 0 C1.29445932 3.66881155 -0.27735506 6.70450534 -2 10 C-2.66 9.67 -3.32 9.34 -4 9 C-4 8.34 -4 7.68 -4 7 C-3.34 7 -2.68 7 -2 7 C-1.34 4.69 -0.68 2.38 0 0 Z " fill="#B13556" transform="translate(218,57)"/>
<path d="M0 0 C2.0625 0.4375 2.0625 0.4375 4 1 C3.67 2.32 3.34 3.64 3 5 C2.01 5 1.02 5 0 5 C-0.5625 3.0625 -0.5625 3.0625 -1 1 C-0.67 0.67 -0.34 0.34 0 0 Z " fill="#1C1C1C" transform="translate(251,193)"/>
<path d="M0 0 C-0.99 1.485 -0.99 1.485 -2 3 C-3.66666667 3 -5.33333333 3 -7 3 C-7 2.01 -7 1.02 -7 0 C-3.98968256 -0.93423645 -3.13349732 -1.04449911 0 0 Z " fill="#1E1C1D" transform="translate(284,170)"/>
<path d="M0 0 C0.33 0 0.66 0 1 0 C1.33 3.3 1.66 6.6 2 10 C1.01 10.495 1.01 10.495 0 11 C-0.66 10.34 -1.32 9.68 -2 9 C-1.7578125 6.8359375 -1.7578125 6.8359375 -1.125 4.375 C-0.92132813 3.55773437 -0.71765625 2.74046875 -0.5078125 1.8984375 C-0.34023437 1.27195313 -0.17265625 0.64546875 0 0 Z " fill="#BEBEBE" transform="translate(194,160)"/>
<path d="M0 0 C0.66 0 1.32 0 2 0 C2.33 0.66 2.66 1.32 3 2 C5.01669827 3.13350534 5.01669827 3.13350534 7 4 C3.71303767 4.79953138 2.28976808 5.09658936 -1 4 C-0.67 2.68 -0.34 1.36 0 0 Z " fill="#F1E53C" transform="translate(178,162)"/>
<path d="M0 0 C1.32 0 2.64 0 4 0 C4 1.65 4 3.3 4 5 C3.01 5.33 2.02 5.66 1 6 C0 5 0 5 -0.0625 2.4375 C-0.041875 1.633125 -0.02125 0.82875 0 0 Z " fill="#342D22" transform="translate(171,162)"/>
<path d="M0 0 C0.99 0 1.98 0 3 0 C3.33 0.99 3.66 1.98 4 3 C4.66 3.66 5.32 4.32 6 5 C5.67 5.99 5.34 6.98 5 8 C3.5 6.6875 3.5 6.6875 2 5 C2 4.01 2 3.02 2 2 C1.34 2 0.68 2 0 2 C0 1.34 0 0.68 0 0 Z " fill="#1F190D" transform="translate(185,155)"/>
<path d="M0 0 C0.66 0 1.32 0 2 0 C2 1.32 2 2.64 2 4 C2.66 4 3.32 4 4 4 C4.33 3.01 4.66 2.02 5 1 C5.66 2.32 6.32 3.64 7 5 C5.35 5.33 3.7 5.66 2 6 C1.34 4.02 0.68 2.04 0 0 Z " fill="#373737" transform="translate(281,155)"/>
<path d="M0 0 C1.0625 1.8125 1.0625 1.8125 2 4 C1.67 4.99 1.34 5.98 1 7 C0.01 6.67 -0.98 6.34 -2 6 C-1.34 4.02 -0.68 2.04 0 0 Z " fill="#2D2D2D" transform="translate(77,86)"/>
<path d="M0 0 C3.3 0.33 6.6 0.66 10 1 C8 3 8 3 4.875 3.125 C3.92625 3.08375 2.9775 3.0425 2 3 C2 2.34 2 1.68 2 1 C1.34 0.67 0.68 0.34 0 0 Z " fill="#2C302E" transform="translate(262,56)"/>
<path d="M0 0 C1.13643966 3.40931897 0.86747764 4.00335456 -0.4375 7.1875 C-0.86869141 8.26064453 -0.86869141 8.26064453 -1.30859375 9.35546875 C-1.53675781 9.89816406 -1.76492187 10.44085938 -2 11 C-2.33 11 -2.66 11 -3 11 C-3.32613618 6.32538149 -2.70582788 3.83325617 0 0 Z " fill="#110F10" transform="translate(86,40)"/>
<path d="M0 0 C-0.33 0.99 -0.66 1.98 -1 3 C-2.98 3 -4.96 3 -7 3 C-7 2.34 -7 1.68 -7 1 C-4 0 -4 0 0 0 Z " fill="#393939" transform="translate(128,153)"/>
<path d="M0 0 C0.99 0.33 1.98 0.66 3 1 C3 2.98 3 4.96 3 7 C2.01 6.67 1.02 6.34 0 6 C0 4 0 2 0 0 Z " fill="#211C1A" transform="translate(281,100)"/>
<path d="M0 0 C2.375 0.6875 2.375 0.6875 5 2 C6.3125 4.625 6.3125 4.625 7 7 C3.17053157 5.54744301 1.87949705 3.57104439 0 0 Z " fill="#922D47" transform="translate(187,75)"/>
<path d="M0 0 C0.99 1.485 0.99 1.485 2 3 C2.66 2.34 3.32 1.68 4 1 C4.33 2.32 4.66 3.64 5 5 C3.02 5.99 3.02 5.99 1 7 C0 6 0 6 -0.0625 2.9375 C-0.041875 1.968125 -0.02125 0.99875 0 0 Z " fill="#2E2E2E" transform="translate(75,63)"/>
<path d="M0 0 C0.33 1.65 0.66 3.3 1 5 C-1.4375 4.625 -1.4375 4.625 -4 4 C-4.33 3.34 -4.66 2.68 -5 2 C-2 0 -2 0 0 0 Z " fill="#221F1E" transform="translate(262,57)"/>
<path d="M0 0 C0.99 0.33 1.98 0.66 3 1 C3 2.32 3 3.64 3 5 C1.02 5 -0.96 5 -3 5 C-2.01 4.67 -1.02 4.34 0 4 C0 2.68 0 1.36 0 0 Z " fill="#A92F53" transform="translate(231,45)"/>
<path d="M0 0 C0.66 0 1.32 0 2 0 C1.35455571 3.48539917 -0.10134397 6.02819057 -2 9 C-2.33 8.34 -2.66 7.68 -3 7 C-2.06421005 4.64018187 -1.06652192 2.30368736 0 0 Z " fill="#3D3C3C" transform="translate(80,36)"/>
<path d="M0 0 C2.99324263 1.0975223 3.84610901 1.67682892 5.25 4.625 C5.4975 5.40875 5.745 6.1925 6 7 C5.01 7 4.02 7 3 7 C2.01 4.69 1.02 2.38 0 0 Z " fill="#1C1C1C" transform="translate(274,22)"/>
<path d="M0 0 C1.65 1.32 3.3 2.64 5 4 C4.67 4.99 4.34 5.98 4 7 C3.34 6.01 2.68 5.02 2 4 C1.34 4.66 0.68 5.32 0 6 C-0.38218767 4.34385343 -0.71395102 2.67542976 -1 1 C-0.67 0.67 -0.34 0.34 0 0 Z " fill="#1A1617" transform="translate(226,24)"/>
<path d="M0 0 C0.99 0.33 1.98 0.66 3 1 C3 1.66 3 2.32 3 3 C3.99 3.33 4.98 3.66 6 4 C5.01 4.66 4.02 5.32 3 6 C1.5 4.6875 1.5 4.6875 0 3 C0 2.01 0 1.02 0 0 Z " fill="#E8EEED" transform="translate(225,20)"/>
</svg>
